<svg xmlns="http://www.w3.org/2000/svg" viewBox="0 0 1100 741" width="1100" height="741" role="img" aria-labelledby="chartTitle chartDesc" font-family="system-ui, -apple-system, 'Segoe UI', sans-serif">
<title id="chartTitle">Codex GPT 4.1–5.2 native token history</title>
<desc id="chartDesc">Combined system prompt and built-in tool token counts by CLI release date. Lines break where a complete native measurement is unavailable. Vertical markers show model API availability dates.</desc>
<g data-model="gpt-4.1"><line x1="80.0" y1="28.0" x2="105.0" y2="28.0" stroke="#2563eb" stroke-width="3"/><text x="113.0" y="33.0" font-size="14" fill="#52514e">GPT-4.1</text></g>
<g data-model="gpt-4.1-mini"><line x1="207.0" y1="28.0" x2="232.0" y2="28.0" stroke="#dc2626" stroke-width="3" stroke-dasharray="10,4"/><text x="240.0" y="33.0" font-size="14" fill="#52514e">GPT-4.1 mini</text></g>
<g data-model="gpt-4.1-nano"><line x1="374.0" y1="28.0" x2="399.0" y2="28.0" stroke="#15803d" stroke-width="3" stroke-dasharray="3,4"/><text x="407.0" y="33.0" font-size="14" fill="#52514e">GPT-4.1 nano</text></g>
<g data-model="gpt-5-2025-08-07"><line x1="541.0" y1="28.0" x2="566.0" y2="28.0" stroke="#9333ea" stroke-width="3" stroke-dasharray="12,4,3,4"/><text x="574.0" y="33.0" font-size="14" fill="#52514e">GPT-5</text></g>
<g data-model="gpt-5-mini-2025-08-07"><line x1="652.0" y1="28.0" x2="677.0" y2="28.0" stroke="#ea580c" stroke-width="3" stroke-dasharray="2,3"/><text x="685.0" y="33.0" font-size="14" fill="#52514e">GPT-5 mini</text></g>
<g data-model="gpt-5-nano-2025-08-07"><line x1="803.0" y1="28.0" x2="828.0" y2="28.0" stroke="#087f8c" stroke-width="3"/><text x="836.0" y="33.0" font-size="14" fill="#52514e">GPT-5 nano</text></g>
<g data-model="gpt-5-pro-2025-10-06"><line x1="80.0" y1="54.0" x2="105.0" y2="54.0" stroke="#be123c" stroke-width="3" stroke-dasharray="10,4"/><text x="113.0" y="59.0" font-size="14" fill="#52514e">GPT-5 Pro</text></g>
<g data-model="gpt-5.1"><line x1="223.0" y1="54.0" x2="248.0" y2="54.0" stroke="#4f46e5" stroke-width="3" stroke-dasharray="3,4"/><text x="256.0" y="59.0" font-size="14" fill="#52514e">GPT-5.1</text></g>
<g data-model="gpt-5.2"><line x1="350.0" y1="54.0" x2="375.0" y2="54.0" stroke="#4d7c0f" stroke-width="3" stroke-dasharray="12,4,3,4"/><text x="383.0" y="59.0" font-size="14" fill="#52514e">GPT-5.2</text></g>
<line x1="80" y1="565.0" x2="1070" y2="565.0" stroke="#e1e0d9" stroke-width="1"/>
<text x="68" y="569.0" font-size="15" fill="#898781" text-anchor="end">0</text>
<line x1="80" y1="334.5" x2="1070" y2="334.5" stroke="#e1e0d9" stroke-width="1"/>
<text x="68" y="338.5" font-size="15" fill="#898781" text-anchor="end">10k</text>
<line x1="80" y1="104.0" x2="1070" y2="104.0" stroke="#e1e0d9" stroke-width="1"/>
<text x="68" y="108.0" font-size="15" fill="#898781" text-anchor="end">20k</text>
<text x="24" y="334.5" font-size="14" fill="#898781" text-anchor="middle" letter-spacing="1.5" transform="rotate(-90 24 334.5)">COMBINED NATIVE TOKENS</text>
<line x1="80" y1="565" x2="1070" y2="565" stroke="#c3c2b7" stroke-width="1"/>
<text x="80.0" y="592" font-size="14" fill="#898781" text-anchor="middle">Apr 2025</text>
<text x="245.0" y="592" font-size="14" fill="#898781" text-anchor="middle">Jul 2025</text>
<text x="410.0" y="592" font-size="14" fill="#898781" text-anchor="middle">Sep 2025</text>
<text x="575.0" y="592" font-size="14" fill="#898781" text-anchor="middle">Dec 2025</text>
<text x="740.0" y="592" font-size="14" fill="#898781" text-anchor="middle">Mar 2026</text>
<text x="905.0" y="592" font-size="14" fill="#898781" text-anchor="middle">Jun 2026</text>
<text x="1070.0" y="592" font-size="14" fill="#898781" text-anchor="middle">Sep 2026</text>
<g data-release-date="2025-04-14"><line x1="80.0" y1="104" x2="80.0" y2="565" stroke="#898781" stroke-width="1" stroke-dasharray="5,4" opacity="0.6"/>
<text x="80.0" y="95.0" font-size="14" font-weight="700" fill="#52514e" text-anchor="middle">R1</text></g>
<g data-release-date="2025-08-07"><line x1="303.7" y1="104" x2="303.7" y2="565" stroke="#898781" stroke-width="1" stroke-dasharray="5,4" opacity="0.6"/>
<text x="303.7" y="95.0" font-size="14" font-weight="700" fill="#52514e" text-anchor="middle">R2</text></g>
<g data-release-date="2025-10-06"><line x1="420.4" y1="104" x2="420.4" y2="565" stroke="#898781" stroke-width="1" stroke-dasharray="5,4" opacity="0.6"/>
<text x="420.4" y="95.0" font-size="14" font-weight="700" fill="#52514e" text-anchor="middle">R3</text></g>
<g data-release-date="2025-11-12"><line x1="492.3" y1="104" x2="492.3" y2="565" stroke="#898781" stroke-width="1" stroke-dasharray="5,4" opacity="0.6"/>
<text x="492.3" y="95.0" font-size="14" font-weight="700" fill="#52514e" text-anchor="middle">R4</text></g>
<g data-release-date="2025-12-11"><line x1="548.8" y1="104" x2="548.8" y2="565" stroke="#898781" stroke-width="1" stroke-dasharray="5,4" opacity="0.6"/>
<text x="548.8" y="95.0" font-size="14" font-weight="700" fill="#52514e" text-anchor="middle">R5</text></g>
<g data-series-model="gpt-4.1">
<path d="M 85.3 539.6 L 85.3 539.6 L 85.3 539.6 L 85.4 539.6 L 85.4 540.4 L 85.6 540.4 L 85.7 540.4 L 88.3 540.4 L 88.3 540.4 L 88.3 540.4 L 95.4 540.4 L 96.3 540.4 L 97.3 540.4 L 103.4 540.4 L 113.1 540.4 L 116.6 540.4 L 134.5 540.0 L 139.6 524.2 L 139.8 524.2 L 143.5 524.2 L 143.7 540.9 L 143.8 540.9 L 143.8 524.6 L 144.3 524.6 L 146.0 524.6 L 146.1 524.6 L 146.1 524.6 L 146.5 524.6 L 146.5 524.6 L 149.9 524.6 L 169.5 524.6 L 245.3 516.7 L 245.9 516.7 L 248.6 516.7 L 251.0 516.7 L 255.1 516.7 L 258.4 516.7 L 266.8 516.7 L 274.6 516.7 L 278.3 516.7 L 294.0 510.9 L 299.9 511.2 L 301.5 497.9 L 303.1 497.9 L 305.1 432.5 L 305.8 432.5 L 307.7 432.5 L 313.8 432.5 L 321.0 431.1 L 329.5 431.1 L 342.1 441.9 L 343.3 438.5 L 346.8 437.9 L 347.0 437.9 L 356.1 437.9 L 357.8 437.9 L 361.9 431.7 L 367.7 431.7 L 371.2 431.7 L 371.4 431.7 L 371.6 431.7 L 380.9 427.8 L 384.9 427.8 L 387.1 427.8 L 396.4 426.4 L 398.4 426.4 L 402.4 426.4 L 415.9 426.4 L 422.0 426.4 L 426.4 426.4 L 443.2 420.1 L 455.4 418.2 L 456.9 418.2 L 459.1 418.2 L 468.6 418.2 L 469.1 418.2 L 478.3 418.2 L 478.4 418.2 L 484.1 418.2 L 488.3 418.2 L 495.8 418.2 L 507.4 417.0 L 507.6 417.0 L 509.2 417.0 L 511.3 417.0 L 533.1 417.0 L 536.6 417.0 L 545.2 417.0 L 548.6 416.9 L 550.3 416.9 L 552.8 417.8 L 558.4 417.8 L 563.8 417.8 L 564.0 417.8 L 565.9 417.8 L 568.7 417.8 L 600.9 417.8 L 601.3 417.8 L 606.8 417.8 L 616.4 433.3 L 617.0 433.3 L 618.3 433.3 L 618.9 433.3 L 620.0 433.3 L 630.1 433.3 L 632.2 433.3 L 637.6 433.3 L 637.7 433.3 L 641.1 426.6 L 648.5 423.8 L 653.3 419.8 L 656.1 419.6 L 657.2 416.1 L 658.1 416.1 L 659.1 416.1 L 671.0 433.5 L 672.8 433.5 L 672.9 433.5 L 682.6 439.8 L 682.9 439.8 L 683.5 439.8 L 698.0 439.8 L 700.4 439.8 L 707.8 439.8 L 712.3 439.8 L 713.7 439.8 L 719.7 439.8 L 722.3 439.8 L 723.8 439.8 L 735.1 385.2 L 740.8 385.1 L 754.8 385.1 L 764.1 385.1 L 784.0 385.1 L 784.3 385.1 L 793.6 385.1" fill="none" stroke="#2563eb" stroke-width="2.5" stroke-linejoin="round" stroke-linecap="round"/>
<path d="M 1039.4 399.6 L 1040.7 399.6 L 1046.8 399.6 L 1052.3 399.5 L 1052.9 399.5 L 1057.3 399.7 L 1062.4 421.7 L 1064.1 421.7 L 1066.3 421.7 L 1067.9 421.7 L 1068.2 421.7 L 1069.7 421.7 L 1070.0 421.5" fill="none" stroke="#2563eb" stroke-width="2.5" stroke-linejoin="round" stroke-linecap="round"/>
</g>
<g data-series-model="gpt-4.1-mini">
<path d="M 85.3 539.6 L 85.3 539.6 L 85.3 539.6 L 85.4 539.6 L 85.4 540.4 L 85.6 540.4 L 85.7 540.4 L 88.3 540.4 L 88.3 540.4 L 88.3 540.4 L 95.4 540.4 L 96.3 540.4 L 97.3 540.4 L 103.4 540.4 L 113.1 540.4 L 116.6 540.4 L 134.5 539.9 L 139.6 524.2 L 139.8 524.2 L 143.5 524.2 L 143.7 540.9 L 143.8 540.9 L 143.8 524.6 L 144.3 524.6 L 146.0 524.6 L 146.1 524.6 L 146.1 524.6 L 146.5 524.6 L 146.5 524.6 L 149.9 524.6 L 169.5 524.6 L 245.3 516.7 L 245.9 516.7 L 248.6 516.7 L 251.0 516.7 L 255.1 516.7 L 258.4 516.7 L 266.8 516.7 L 274.6 516.7 L 278.3 516.7 L 294.0 510.9 L 299.9 511.2 L 301.5 497.9 L 303.1 497.9 L 305.1 432.5 L 305.8 432.5 L 307.7 432.5 L 313.8 432.5 L 321.0 431.1 L 329.5 431.1 L 342.1 441.9 L 343.3 438.5 L 346.8 437.9 L 347.0 437.9 L 356.1 437.9 L 357.8 437.9 L 361.9 431.7 L 367.7 431.7 L 371.2 431.7 L 371.4 431.7 L 371.6 431.7 L 380.9 427.8 L 384.9 427.8 L 387.1 427.8 L 396.4 426.4 L 398.4 426.4 L 402.4 426.4 L 415.9 426.4 L 422.0 426.4 L 426.4 426.4 L 443.2 420.1 L 455.4 418.2 L 456.9 418.2 L 459.1 418.2 L 468.6 418.2 L 469.1 418.2 L 478.3 418.2 L 478.4 418.2 L 484.1 418.2 L 488.3 418.2 L 495.8 418.2 L 507.4 417.0 L 507.6 417.0 L 509.2 417.0 L 511.3 417.0 L 533.1 417.0 L 536.6 417.0 L 545.2 417.0 L 548.6 416.9 L 550.3 416.9 L 552.8 417.8 L 558.4 417.8 L 563.8 417.8 L 564.0 417.8 L 565.9 417.8 L 568.7 417.8 L 600.9 417.8 L 601.3 417.8 L 606.8 417.8 L 616.4 433.3 L 617.0 433.3 L 618.3 433.3 L 618.9 433.3 L 620.0 433.3 L 630.1 433.3 L 632.2 433.3 L 637.6 433.3 L 637.7 433.3 L 641.1 426.6 L 648.5 423.8 L 653.3 419.8 L 656.1 419.6 L 657.2 416.1 L 658.1 416.1 L 659.1 416.1 L 671.0 433.5 L 672.8 433.5 L 672.9 433.5 L 682.6 439.8 L 682.9 439.8 L 683.5 439.8 L 698.0 439.8 L 700.4 439.8 L 707.8 439.8 L 712.3 439.8 L 713.7 439.8 L 719.7 439.8 L 722.3 439.8 L 723.8 439.8 L 735.1 385.2 L 740.8 385.1 L 754.8 385.1 L 764.1 385.1 L 784.0 385.1 L 784.3 385.1 L 793.6 385.1" fill="none" stroke="#dc2626" stroke-width="2.5" stroke-linejoin="round" stroke-linecap="round" stroke-dasharray="10,4"/>
<path d="M 1039.4 399.6 L 1040.7 399.6 L 1046.8 399.6 L 1052.3 399.5 L 1052.9 399.5 L 1057.3 399.7 L 1062.4 421.7 L 1064.1 421.7 L 1066.3 421.7 L 1067.9 421.7 L 1068.2 421.7 L 1069.7 421.7 L 1070.0 421.5" fill="none" stroke="#dc2626" stroke-width="2.5" stroke-linejoin="round" stroke-linecap="round" stroke-dasharray="10,4"/>
</g>
<g data-series-model="gpt-4.1-nano">
<path d="M 85.3 539.6 L 85.3 539.6 L 85.3 539.6 L 85.4 539.6 L 85.4 540.4 L 85.6 540.4 L 85.7 540.4 L 88.3 540.4 L 88.3 540.4 L 88.3 540.4 L 95.4 540.4 L 96.3 540.4 L 97.3 540.4 L 103.4 540.4 L 113.1 540.4 L 116.6 540.4 L 134.5 539.9 L 139.6 524.2 L 139.8 524.2 L 143.5 524.2 L 143.7 540.9 L 143.8 540.9 L 143.8 524.6 L 144.3 524.6 L 146.0 524.6 L 146.1 524.6 L 146.1 524.6 L 146.5 524.6 L 146.5 524.6 L 149.9 524.6 L 169.5 524.6 L 245.3 516.7 L 245.9 516.7 L 248.6 516.7 L 251.0 516.7 L 255.1 516.7 L 258.4 516.7 L 266.8 516.7 L 274.6 516.7 L 278.3 516.7 L 294.0 510.9 L 299.9 511.2 L 301.5 497.9 L 303.1 497.9 L 305.1 432.5 L 305.8 432.5 L 307.7 432.5 L 313.8 432.5 L 321.0 431.1 L 329.5 431.1 L 342.1 441.9 L 343.3 438.5 L 346.8 437.9 L 347.0 437.9 L 356.1 437.9 L 357.8 437.9 L 361.9 431.7 L 367.7 431.7 L 371.2 431.7 L 371.4 431.7 L 371.6 431.7 L 380.9 427.8 L 384.9 427.8 L 387.1 427.8 L 396.4 426.4 L 398.4 426.4 L 402.4 426.4 L 415.9 426.4 L 422.0 426.4 L 426.4 426.4 L 443.2 420.1 L 455.4 418.2 L 456.9 418.2 L 459.1 418.2 L 468.6 418.2 L 469.1 418.2 L 478.3 418.2 L 478.4 418.2 L 484.1 418.2 L 488.3 418.2 L 495.8 418.2 L 507.4 417.0 L 507.6 417.0 L 509.2 417.0 L 511.3 417.0 L 533.1 417.0 L 536.6 417.0 L 545.2 417.0 L 548.6 416.9 L 550.3 416.9 L 552.8 417.8 L 558.4 417.8 L 563.8 417.8 L 564.0 417.8 L 565.9 417.8 L 568.7 417.8 L 600.9 417.8 L 601.3 417.8 L 606.8 417.8 L 616.4 433.3 L 617.0 433.3 L 618.3 433.3 L 618.9 433.3 L 620.0 433.3 L 630.1 433.3 L 632.2 433.3 L 637.6 433.3 L 637.7 433.3" fill="none" stroke="#15803d" stroke-width="2.5" stroke-linejoin="round" stroke-linecap="round" stroke-dasharray="3,4"/>
</g>
<g data-series-model="gpt-5-2025-08-07">
<path d="M 305.1 446.8 L 305.8 446.8 L 307.7 446.8 L 313.8 446.8 L 321.0 445.3 L 329.5 445.3 L 342.1 440.1 L 343.3 436.7 L 346.8 437.9 L 347.0 437.9 L 356.1 437.9 L 357.8 437.9 L 361.9 431.7 L 367.7 431.7 L 371.2 431.7 L 371.4 431.7 L 371.6 431.7 L 380.9 427.8 L 384.9 427.8 L 387.1 427.8 L 396.4 426.4 L 398.4 426.4 L 402.4 426.4 L 415.9 426.4 L 422.0 426.4 L 426.4 426.4 L 443.2 420.1 L 455.4 418.2 L 456.9 418.2 L 459.1 418.2 L 468.6 418.2 L 469.1 418.2 L 478.3 418.2 L 478.4 418.2 L 484.1 418.2 L 488.3 418.2 L 495.8 418.2 L 507.4 417.0 L 507.6 417.0 L 509.2 417.0 L 511.3 417.0 L 533.1 417.0 L 536.6 417.0 L 545.2 417.0 L 548.6 416.9 L 550.3 416.9 L 552.8 417.8 L 558.4 417.8 L 563.8 417.8 L 564.0 417.8 L 565.9 417.8 L 568.7 417.8 L 600.9 417.8 L 601.3 417.8 L 606.8 417.8 L 616.4 433.3 L 617.0 433.3 L 618.3 433.3 L 618.9 433.3 L 620.0 433.3 L 630.1 433.3 L 632.2 433.3 L 637.6 433.3 L 637.7 433.3 L 641.1 331.0 L 648.5 328.3 L 653.3 324.2 L 656.1 324.0 L 657.2 320.6 L 658.1 320.6 L 659.1 320.6 L 671.0 337.9 L 672.8 337.9 L 672.9 337.9 L 682.6 344.3 L 682.9 344.3 L 683.5 344.3 L 698.0 344.3 L 700.4 344.3 L 707.8 344.3 L 712.3 344.3 L 713.7 344.3 L 719.7 344.3 L 722.3 344.3 L 723.8 344.3 L 735.1 289.7 L 740.8 289.6 L 754.8 289.6 L 764.1 289.6 L 784.0 289.6 L 784.3 289.6 L 793.6 289.6" fill="none" stroke="#9333ea" stroke-width="2.5" stroke-linejoin="round" stroke-linecap="round" stroke-dasharray="12,4,3,4"/>
<path d="M 1039.4 304.1 L 1040.7 304.1 L 1046.8 304.1 L 1052.3 304.1 L 1052.9 304.1 L 1057.3 304.2 L 1062.4 326.3 L 1064.1 326.3 L 1066.3 326.3 L 1067.9 326.3 L 1068.2 326.3 L 1069.7 326.3 L 1070.0 326.1" fill="none" stroke="#9333ea" stroke-width="2.5" stroke-linejoin="round" stroke-linecap="round" stroke-dasharray="12,4,3,4"/>
</g>
<g data-series-model="gpt-5-mini-2025-08-07">
<path d="M 305.1 446.8 L 305.8 446.8 L 307.7 446.8 L 313.8 446.8 L 321.0 445.3 L 329.5 445.3 L 342.1 440.1 L 343.3 436.7 L 346.8 437.9 L 347.0 437.9 L 356.1 437.9 L 357.8 437.9 L 361.9 431.7 L 367.7 431.7 L 371.2 431.7 L 371.4 431.7 L 371.6 431.7 L 380.9 427.8 L 384.9 427.8 L 387.1 427.8 L 396.4 426.4 L 398.4 426.4 L 402.4 426.4 L 415.9 426.4 L 422.0 426.4 L 426.4 426.4 L 443.2 420.1 L 455.4 418.2 L 456.9 418.2 L 459.1 418.2 L 468.6 418.2 L 469.1 418.2 L 478.3 418.2 L 478.4 418.2 L 484.1 418.2 L 488.3 418.2 L 495.8 418.2 L 507.4 417.0 L 507.6 417.0 L 509.2 417.0 L 511.3 417.0 L 533.1 417.0 L 536.6 417.0 L 545.2 417.0 L 548.6 416.9 L 550.3 416.9 L 552.8 417.8 L 558.4 417.8 L 563.8 417.8 L 564.0 417.8 L 565.9 417.8 L 568.7 417.8 L 600.9 417.8 L 601.3 417.8 L 606.8 417.8 L 616.4 433.3 L 617.0 433.3 L 618.3 433.3 L 618.9 433.3 L 620.0 433.3 L 630.1 433.3 L 632.2 433.3 L 637.6 433.3 L 637.7 433.3 L 641.1 331.0 L 648.5 328.3 L 653.3 324.2 L 656.1 324.0 L 657.2 320.6 L 658.1 320.6 L 659.1 320.6 L 671.0 337.9 L 672.8 337.9 L 672.9 337.9 L 682.6 344.3 L 682.9 344.3 L 683.5 344.3 L 698.0 344.3 L 700.4 344.3 L 707.8 344.3 L 712.3 344.3 L 713.7 344.3 L 719.7 344.3 L 722.3 344.3 L 723.8 344.3 L 735.1 289.7 L 740.8 289.6 L 754.8 289.6 L 764.1 289.6 L 784.0 289.6 L 784.3 289.6 L 793.6 289.6" fill="none" stroke="#ea580c" stroke-width="2.5" stroke-linejoin="round" stroke-linecap="round" stroke-dasharray="2,3"/>
<path d="M 1039.4 304.1 L 1040.7 304.1 L 1046.8 304.1 L 1052.3 304.1 L 1052.9 304.1 L 1057.3 304.2 L 1062.4 326.3 L 1064.1 326.3 L 1066.3 326.3 L 1067.9 326.3 L 1068.2 326.3 L 1069.7 326.3 L 1070.0 326.1" fill="none" stroke="#ea580c" stroke-width="2.5" stroke-linejoin="round" stroke-linecap="round" stroke-dasharray="2,3"/>
</g>
<g data-series-model="gpt-5-nano-2025-08-07">
<path d="M 305.1 446.8 L 305.8 446.8 L 307.7 446.8 L 313.8 446.8 L 321.0 445.3 L 329.5 445.3 L 342.1 440.1 L 343.3 436.7 L 346.8 437.9 L 347.0 437.9 L 356.1 437.9 L 357.8 437.9 L 361.9 431.7 L 367.7 431.7 L 371.2 431.7 L 371.4 431.7 L 371.6 431.7 L 380.9 427.8 L 384.9 427.8 L 387.1 427.8 L 396.4 426.4 L 398.4 426.4 L 402.4 426.4 L 415.9 426.4 L 422.0 426.4 L 426.4 426.4 L 443.2 420.1 L 455.4 418.2 L 456.9 418.2 L 459.1 418.2 L 468.6 418.2 L 469.1 418.2 L 478.3 418.2 L 478.4 418.2 L 484.1 418.2 L 488.3 418.2 L 495.8 418.2 L 507.4 417.0 L 507.6 417.0 L 509.2 417.0 L 511.3 417.0 L 533.1 417.0 L 536.6 417.0 L 545.2 417.0 L 548.6 416.9 L 550.3 416.9 L 552.8 417.8 L 558.4 417.8 L 563.8 417.8 L 564.0 417.8 L 565.9 417.8 L 568.7 417.8 L 600.9 417.8 L 601.3 417.8 L 606.8 417.8 L 616.4 433.3 L 617.0 433.3 L 618.3 433.3 L 618.9 433.3 L 620.0 433.3 L 630.1 433.3 L 632.2 433.3 L 637.6 433.3 L 637.7 433.3 L 641.1 331.0 L 648.5 328.3 L 653.3 324.2 L 656.1 324.0 L 657.2 320.6 L 658.1 320.6 L 659.1 320.6 L 671.0 337.9 L 672.8 337.9 L 672.9 337.9 L 682.6 344.3 L 682.9 344.3 L 683.5 344.3 L 698.0 344.3 L 700.4 344.3 L 707.8 344.3 L 712.3 344.3 L 713.7 344.3 L 719.7 344.3 L 722.3 344.3 L 723.8 344.3 L 735.1 289.7 L 740.8 289.6 L 754.8 289.6 L 764.1 289.6 L 784.0 289.6 L 784.3 289.6 L 793.6 289.6" fill="none" stroke="#087f8c" stroke-width="2.5" stroke-linejoin="round" stroke-linecap="round"/>
<path d="M 1039.4 302.3 L 1040.7 302.3 L 1046.8 302.3 L 1052.3 302.3 L 1052.9 302.3 L 1057.3 302.4 L 1062.4 324.5 L 1064.1 324.5 L 1066.3 324.5 L 1067.9 324.5 L 1068.2 324.5 L 1069.7 324.5 L 1070.0 324.3" fill="none" stroke="#087f8c" stroke-width="2.5" stroke-linejoin="round" stroke-linecap="round"/>
</g>
<g data-series-model="gpt-5-pro-2025-10-06">
<path d="M 422.0 426.4 L 426.4 426.4 L 443.2 420.1 L 455.4 418.2 L 456.9 418.2 L 459.1 418.2 L 468.6 418.2 L 469.1 418.2 L 478.3 418.2 L 478.4 418.2 L 484.1 418.2 L 488.3 418.2 L 495.8 418.2 L 507.4 417.0 L 507.6 417.0 L 509.2 417.0 L 511.3 417.0 L 533.1 417.0 L 536.6 417.0 L 545.2 417.0 L 548.6 416.9 L 550.3 416.9 L 552.8 417.8 L 558.4 417.8 L 563.8 417.8 L 564.0 417.8 L 565.9 417.8 L 568.7 417.8 L 600.9 417.8 L 601.3 417.8 L 606.8 417.8 L 616.4 433.3 L 617.0 433.3 L 618.3 433.3 L 618.9 433.3 L 620.0 433.3 L 630.1 433.3 L 632.2 433.3 L 637.6 433.3 L 637.7 433.3 L 641.1 331.0 L 648.5 328.3 L 653.3 324.2 L 656.1 324.0 L 657.2 320.6 L 658.1 320.6 L 659.1 320.6 L 671.0 337.9 L 672.8 337.9 L 672.9 337.9 L 682.6 344.3 L 682.9 344.3 L 683.5 344.3 L 698.0 344.3 L 700.4 344.3 L 707.8 344.3 L 712.3 344.3 L 713.7 344.3 L 719.7 344.3 L 722.3 344.3 L 723.8 344.3 L 735.1 289.7 L 740.8 289.6 L 754.8 289.6 L 764.1 289.6 L 784.0 289.6 L 784.3 289.6 L 793.6 289.6" fill="none" stroke="#be123c" stroke-width="2.5" stroke-linejoin="round" stroke-linecap="round" stroke-dasharray="10,4"/>
<path d="M 1039.4 304.1 L 1040.7 304.1 L 1046.8 304.1 L 1052.3 304.1 L 1052.9 304.1 L 1057.3 304.2 L 1062.4 326.3 L 1064.1 326.3 L 1066.3 326.3 L 1067.9 326.3 L 1068.2 326.3 L 1069.7 326.3 L 1070.0 326.1" fill="none" stroke="#be123c" stroke-width="2.5" stroke-linejoin="round" stroke-linecap="round" stroke-dasharray="10,4"/>
</g>
<g data-series-model="gpt-5.1">
<path d="M 495.8 408.3 L 507.4 408.5 L 507.6 408.5 L 509.2 408.5 L 511.3 408.5 L 533.1 408.5 L 536.6 408.5 L 545.2 408.1 L 548.6 408.2 L 550.3 408.0 L 552.8 408.9 L 558.4 408.9 L 563.8 409.1 L 564.0 409.1 L 565.9 409.1 L 568.7 409.1 L 600.9 409.1 L 601.3 409.1 L 606.8 409.1 L 616.4 428.3 L 617.0 428.3 L 618.3 428.3 L 618.9 428.3 L 620.0 428.3 L 630.1 428.3 L 632.2 428.3 L 637.6 428.3 L 637.7 428.3 L 641.1 326.0 L 648.5 323.3 L 653.3 319.2 L 656.1 319.0 L 657.2 315.5 L 658.1 315.5 L 659.1 315.5 L 671.0 337.9 L 672.8 337.9 L 672.9 337.9 L 682.6 344.3 L 682.9 321.8 L 683.5 321.8 L 698.0 321.8 L 700.4 321.8 L 707.8 321.8 L 712.3 321.8 L 713.7 321.8 L 719.7 321.8 L 722.3 321.8 L 723.8 321.8 L 735.1 267.3 L 740.8 267.2 L 754.8 267.2 L 764.1 267.2 L 784.0 267.2 L 784.3 267.2 L 793.6 267.2" fill="none" stroke="#4f46e5" stroke-width="2.5" stroke-linejoin="round" stroke-linecap="round" stroke-dasharray="3,4"/>
<path d="M 1039.4 304.1 L 1040.7 304.1 L 1046.8 304.1 L 1052.3 304.1 L 1052.9 304.1 L 1057.3 304.2 L 1062.4 326.3 L 1064.1 326.3 L 1066.3 326.3 L 1067.9 326.3 L 1068.2 326.3 L 1069.7 326.3 L 1070.0 326.1" fill="none" stroke="#4f46e5" stroke-width="2.5" stroke-linejoin="round" stroke-linecap="round" stroke-dasharray="3,4"/>
</g>
<g data-series-model="gpt-5.2">
<path d="M 550.3 406.8 L 552.8 420.7 L 558.4 420.7 L 563.8 420.8 L 564.0 420.8 L 565.9 420.8 L 568.7 420.8 L 600.9 420.8 L 601.3 420.8 L 606.8 420.8 L 616.4 440.0 L 617.0 440.0 L 618.3 440.0 L 618.9 440.0 L 620.0 440.0 L 630.1 440.0 L 632.2 440.0 L 637.6 440.0 L 637.7 440.0 L 641.1 337.7 L 648.5 335.0 L 653.3 330.9 L 656.1 330.7 L 657.2 327.2 L 658.1 327.2 L 659.1 327.2 L 671.0 337.9 L 672.8 337.9 L 672.9 337.9 L 682.6 344.3 L 682.9 333.5 L 683.5 333.5 L 698.0 333.5 L 700.4 333.5 L 707.8 333.5 L 712.3 333.5 L 713.7 333.5 L 719.7 333.5 L 722.3 333.5 L 723.8 333.5 L 735.1 278.9 L 740.8 278.9 L 754.8 278.8 L 764.1 278.8 L 784.0 278.8 L 784.3 278.8 L 793.6 278.8" fill="none" stroke="#4d7c0f" stroke-width="2.5" stroke-linejoin="round" stroke-linecap="round" stroke-dasharray="12,4,3,4"/>
<path d="M 1039.4 331.1 L 1040.7 331.1 L 1046.8 331.1 L 1052.3 331.1 L 1052.9 331.1 L 1057.3 331.1 L 1062.4 355.0 L 1064.1 355.0 L 1066.3 355.0 L 1067.9 355.0 L 1068.2 355.0 L 1069.7 355.0 L 1070.0 355.0" fill="none" stroke="#4d7c0f" stroke-width="2.5" stroke-linejoin="round" stroke-linecap="round" stroke-dasharray="12,4,3,4"/>
</g>
<text x="80.0" y="637.0" font-size="14" fill="#52514e">R1  14 Apr 2025 · GPT-4.1 / GPT-4.1 mini / GPT-4.1 nano</text>
<text x="575.0" y="637.0" font-size="14" fill="#52514e">R2  07 Aug 2025 · GPT-5 / GPT-5 mini / GPT-5 nano</text>
<text x="80.0" y="665.0" font-size="14" fill="#52514e">R3  06 Oct 2025 · GPT-5 Pro</text>
<text x="575.0" y="665.0" font-size="14" fill="#52514e">R4  12 Nov 2025 · GPT-5.1</text>
<text x="80.0" y="693.0" font-size="14" fill="#52514e">R5  11 Dec 2025 · GPT-5.2</text>
</svg>
