<svg xmlns="http://www.w3.org/2000/svg" viewBox="0 0 1100 647" width="1100" height="647" role="img" aria-labelledby="chartTitle chartDesc" font-family="system-ui, -apple-system, 'Segoe UI', sans-serif">
<title id="chartTitle">Codex Codex standard native token history</title>
<desc id="chartDesc">System message and built-in tool token counts for the most recently released model in this lineage at each CLI release. System-message counts remain visible when exact native prompt measurement is available; the aggregate tool area breaks when any tool count is unavailable. Dotted markers show model API availability dates.</desc>
<rect x="0" y="0" width="1100" height="647" fill="#1a1a19"/>
<line x1="80" y1="28" x2="104" y2="28" stroke="#3987e5" stroke-width="3" stroke-linecap="round"/>
<text x="112" y="33" font-size="15" fill="#c3c2b7">System message</text>
<line x1="300" y1="28" x2="324" y2="28" stroke="#d95926" stroke-width="3" stroke-linecap="round"/>
<text x="332" y="33" font-size="15" fill="#c3c2b7">Built-in tools (aggregate)</text>
<line x1="80" y1="587.0" x2="1070" y2="587.0" stroke="#2c2c2a" stroke-width="1"/>
<text x="68" y="591.0" font-size="15" fill="#898781" text-anchor="end">0</text>
<line x1="80" y1="92.0" x2="1070" y2="92.0" stroke="#2c2c2a" stroke-width="1"/>
<text x="68" y="96.0" font-size="15" fill="#898781" text-anchor="end">10k</text>
<text x="24" y="339.5" font-size="14" fill="#898781" text-anchor="middle" letter-spacing="1.5" transform="rotate(-90 24 339.5)">TOKENS</text>
<line x1="80" y1="587" x2="1070" y2="587" stroke="#383835" stroke-width="1"/>
<text x="80.0" y="614" font-size="14" fill="#898781" text-anchor="start">Apr 2025</text>
<text x="245.0" y="614" font-size="14" fill="#898781" text-anchor="middle">Jul 2025</text>
<text x="410.0" y="614" font-size="14" fill="#898781" text-anchor="middle">Oct 2025</text>
<text x="575.0" y="614" font-size="14" fill="#898781" text-anchor="middle">Jan 2026</text>
<text x="740.0" y="614" font-size="14" fill="#898781" text-anchor="middle">Apr 2026</text>
<text x="905.0" y="614" font-size="14" fill="#898781" text-anchor="middle">Jul 2026</text>
<text x="1070.0" y="614" font-size="14" fill="#898781" text-anchor="end">Sep 2026</text>
<g data-release-date="2025-09-23"><line x1="376.3" y1="92" x2="376.3" y2="587" stroke="#898781" stroke-width="1" stroke-dasharray="2,5" stroke-linecap="round" opacity="0.7"/>
<text x="376.3" y="61.0" font-size="14" font-weight="600" fill="#c3c2b7" text-anchor="middle">gpt-5-codex</text></g>
<g data-release-date="2025-11-12"><line x1="469.3" y1="92" x2="469.3" y2="587" stroke="#898781" stroke-width="1" stroke-dasharray="2,5" stroke-linecap="round" opacity="0.7"/>
<text x="469.3" y="83.0" font-size="14" font-weight="600" fill="#c3c2b7" text-anchor="middle">gpt-5.1-codex</text></g>
<g data-release-date="2025-12-18"><line x1="536.2" y1="92" x2="536.2" y2="587" stroke="#898781" stroke-width="1" stroke-dasharray="2,5" stroke-linecap="round" opacity="0.7"/>
<text x="536.2" y="61.0" font-size="14" font-weight="600" fill="#c3c2b7" text-anchor="middle">gpt-5.2-codex</text></g>
<g data-release-date="2026-02-05"><line x1="627.4" y1="92" x2="627.4" y2="587" stroke="#898781" stroke-width="1" stroke-dasharray="2,5" stroke-linecap="round" opacity="0.7"/>
<text x="627.4" y="83.0" font-size="14" font-weight="600" fill="#c3c2b7" text-anchor="middle">gpt-5.3-codex</text></g>
<g data-release-date="2026-07-09"><line x1="913.8" y1="92" x2="913.8" y2="587" stroke="#898781" stroke-width="1" stroke-dasharray="2,5" stroke-linecap="round" opacity="0.7"/>
<text x="913.8" y="61.0" font-size="14" font-weight="600" fill="#c3c2b7" text-anchor="middle">gpt-5.6-sol</text></g>
<g data-selected-models="gpt-5.3-codex">
<path d="M 627.8 587.0 L 627.8 334.2 L 628.7 334.2 L 628.7 334.2 L 640.1 334.2 L 640.1 371.4 L 641.8 371.4 L 641.8 371.4 L 642.0 371.4 L 642.0 371.4 L 651.3 371.4 L 651.3 371.4 L 651.5 371.4 L 651.5 462.8 L 652.1 462.8 L 652.1 462.8 L 665.9 462.8 L 665.9 461.9 L 668.2 461.9 L 668.2 461.9 L 675.3 461.9 L 675.3 461.9 L 679.6 461.9 L 679.6 461.9 L 681.0 461.9 L 681.0 461.9 L 686.6 461.9 L 686.6 461.5 L 689.2 461.5 L 689.2 461.5 L 690.7 461.5 L 690.7 461.5 L 701.4 461.5 L 701.4 461.5 L 706.9 461.5 L 706.9 461.5 L 720.3 461.5 L 720.3 461.5 L 729.1 461.5 L 729.1 461.5 L 748.2 461.5 L 748.2 461.5 L 748.5 461.5 L 748.5 461.5 L 757.3 461.5 L 757.3 461.5 L 766.5 461.5 L 766.5 461.5 L 770.7 461.5 L 770.7 461.5 L 772.0 461.5 L 772.0 461.5 L 773.9 461.5 L 773.9 461.5 L 784.9 461.5 L 784.9 461.5 L 798.0 461.5 L 798.0 461.5 L 800.3 461.5 L 800.3 461.5 L 818.5 461.5 L 818.5 461.5 L 821.0 461.5 L 821.0 461.5 L 824.0 461.5 L 824.0 461.5 L 833.5 461.5 L 833.5 461.5 L 837.2 461.5 L 837.2 461.5 L 844.6 461.5 L 844.6 461.5 L 848.9 461.5 L 848.9 461.5 L 858.0 461.5 L 858.0 461.5 L 859.6 461.5 L 859.6 461.5 L 870.8 461.5 L 870.8 461.5 L 875.1 461.5 L 875.1 461.5 L 883.9 461.5 L 883.9 461.5 L 887.8 461.5 L 887.8 461.5 L 888.4 461.5 L 888.4 461.5 L 891.3 461.5 L 891.3 461.5 L 895.6 461.5 L 895.6 461.5 L 899.0 461.5 L 899.0 461.5 L 912.1 461.5 L 912.1 461.5 L 913.8 461.5 L 913.8 461.5 L 913.8 587.0 Z" fill="#3987e5" fill-opacity="0.13" stroke="none"/>
</g>
<g data-selected-models="gpt-5.6-sol">
<path d="M 915.1 587.0 L 915.1 367.9 L 915.6 367.9 L 915.6 367.6 L 921.6 367.6 L 921.6 367.9 L 921.7 367.9 L 921.7 367.9 L 923.5 367.9 L 923.5 367.9 L 927.1 367.9 L 927.1 367.6 L 931.6 367.6 L 931.6 353.3 L 937.6 353.3 L 937.6 348.2 L 951.2 348.2 L 951.2 348.5 L 965.3 348.5 L 965.3 348.2 L 967.9 348.2 L 967.9 347.0 L 992.4 347.0 L 992.4 348.3 L 993.7 348.3 L 993.7 348.3 L 999.5 348.3 L 999.5 348.3 L 1004.7 348.3 L 1004.7 348.6 L 1005.3 348.6 L 1005.3 348.6 L 1009.5 348.6 L 1009.5 352.8 L 1014.4 352.8 L 1014.4 352.8 L 1016.1 352.8 L 1016.1 352.9 L 1018.1 352.9 L 1018.1 352.8 L 1019.6 352.8 L 1019.6 352.8 L 1019.9 352.8 L 1019.9 352.8 L 1021.4 352.8 L 1021.4 352.9 L 1021.7 352.9 L 1021.7 352.8 L 1030.9 352.8 L 1030.9 352.9 L 1045.9 352.9 L 1045.9 352.9 L 1047.5 352.9 L 1047.5 352.8 L 1055.0 352.8 L 1055.0 352.8 L 1055.5 352.8 L 1055.5 352.8 L 1059.2 352.8 L 1059.2 352.9 L 1060.9 352.9 L 1060.9 352.9 L 1064.9 352.9 L 1064.9 352.8 L 1067.0 352.8 L 1067.0 357.8 L 1068.0 357.8 L 1068.0 357.7 L 1068.2 357.7 L 1068.2 357.8 L 1070.0 357.8 L 1070.0 357.7 L 1070.0 587.0 Z" fill="#3987e5" fill-opacity="0.13" stroke="none"/>
</g>
<g data-selected-models="gpt-5.3-codex">
<path d="M 627.8 332.2 L 627.8 144.7 L 628.7 144.7 L 628.7 144.7 L 640.1 144.7 L 640.1 181.9 L 641.8 181.9 L 641.8 181.9 L 642.0 181.9 L 642.0 181.9 L 651.3 181.9 L 651.3 195.5 L 651.5 195.5 L 651.5 273.6 L 652.1 273.6 L 652.1 273.6 L 665.9 273.6 L 665.9 272.7 L 668.2 272.7 L 668.2 272.7 L 675.3 272.7 L 675.3 272.7 L 679.6 272.7 L 679.6 272.7 L 681.0 272.7 L 681.0 272.7 L 686.6 272.7 L 686.6 272.3 L 689.2 272.3 L 689.2 272.3 L 690.7 272.3 L 690.7 272.3 L 701.4 272.3 L 701.4 155.2 L 706.9 155.2 L 706.9 155.0 L 720.3 155.0 L 720.3 155.0 L 729.1 155.0 L 729.1 155.0 L 748.2 155.0 L 748.2 155.0 L 748.5 155.0 L 748.5 155.0 L 757.3 155.0 L 757.3 151.9 L 766.5 151.9 L 766.5 151.9 L 770.7 151.9 L 770.7 155.4 L 772.0 155.4 L 772.0 155.4 L 773.9 155.4 L 773.9 151.4 L 784.9 151.4 L 784.9 151.4 L 798.0 151.4 L 798.0 151.4 L 800.3 151.4 L 800.3 151.4 L 818.5 151.4 L 818.5 147.7 L 821.0 147.7 L 821.0 160.7 L 824.0 160.7 L 824.0 261.1 L 833.5 261.1 L 833.5 261.1 L 837.2 261.1 L 837.2 261.7 L 844.6 261.7 L 844.6 266.0 L 848.9 266.0 L 848.9 266.0 L 858.0 266.0 L 858.0 266.0 L 859.6 266.0 L 859.6 266.0 L 870.8 266.0 L 870.8 259.6 L 875.1 259.6 L 875.1 259.6 L 883.9 259.6 L 883.9 259.6 L 887.8 259.6 L 887.8 259.6 L 888.4 259.6 L 888.4 259.6 L 891.3 259.6 L 891.3 259.6 L 895.6 259.6 L 895.6 259.6 L 899.0 259.6 L 899.0 259.6 L 912.1 259.6 L 912.1 259.6 L 913.8 259.6 L 913.8 259.6 L 913.8 459.5 L 913.8 459.5 L 912.1 459.5 L 912.1 459.5 L 899.0 459.5 L 899.0 459.5 L 895.6 459.5 L 895.6 459.5 L 891.3 459.5 L 891.3 459.5 L 888.4 459.5 L 888.4 459.5 L 887.8 459.5 L 887.8 459.5 L 883.9 459.5 L 883.9 459.5 L 875.1 459.5 L 875.1 459.5 L 870.8 459.5 L 870.8 459.5 L 859.6 459.5 L 859.6 459.5 L 858.0 459.5 L 858.0 459.5 L 848.9 459.5 L 848.9 459.5 L 844.6 459.5 L 844.6 459.5 L 837.2 459.5 L 837.2 459.5 L 833.5 459.5 L 833.5 459.5 L 824.0 459.5 L 824.0 459.5 L 821.0 459.5 L 821.0 459.5 L 818.5 459.5 L 818.5 459.5 L 800.3 459.5 L 800.3 459.5 L 798.0 459.5 L 798.0 459.5 L 784.9 459.5 L 784.9 459.5 L 773.9 459.5 L 773.9 459.5 L 772.0 459.5 L 772.0 459.5 L 770.7 459.5 L 770.7 459.5 L 766.5 459.5 L 766.5 459.5 L 757.3 459.5 L 757.3 459.5 L 748.5 459.5 L 748.5 459.5 L 748.2 459.5 L 748.2 459.5 L 729.1 459.5 L 729.1 459.5 L 720.3 459.5 L 720.3 459.5 L 706.9 459.5 L 706.9 459.5 L 701.4 459.5 L 701.4 459.5 L 690.7 459.5 L 690.7 459.5 L 689.2 459.5 L 689.2 459.5 L 686.6 459.5 L 686.6 459.9 L 681.0 459.9 L 681.0 459.9 L 679.6 459.9 L 679.6 459.9 L 675.3 459.9 L 675.3 459.9 L 668.2 459.9 L 668.2 459.9 L 665.9 459.9 L 665.9 460.8 L 652.1 460.8 L 652.1 460.8 L 651.5 460.8 L 651.5 369.4 L 651.3 369.4 L 651.3 369.4 L 642.0 369.4 L 642.0 369.4 L 641.8 369.4 L 641.8 369.4 L 640.1 369.4 L 640.1 332.2 L 628.7 332.2 L 628.7 332.2 L 627.8 332.2 Z" fill="#d95926" fill-opacity="0.13" stroke="none"/>
<path d="M 627.8 144.7 L 628.7 144.7 L 628.7 144.7 L 640.1 144.7 L 640.1 181.9 L 641.8 181.9 L 641.8 181.9 L 642.0 181.9 L 642.0 181.9 L 651.3 181.9 L 651.3 195.5 L 651.5 195.5 L 651.5 273.6 L 652.1 273.6 L 652.1 273.6 L 665.9 273.6 L 665.9 272.7 L 668.2 272.7 L 668.2 272.7 L 675.3 272.7 L 675.3 272.7 L 679.6 272.7 L 679.6 272.7 L 681.0 272.7 L 681.0 272.7 L 686.6 272.7 L 686.6 272.3 L 689.2 272.3 L 689.2 272.3 L 690.7 272.3 L 690.7 272.3 L 701.4 272.3 L 701.4 155.2 L 706.9 155.2 L 706.9 155.0 L 720.3 155.0 L 720.3 155.0 L 729.1 155.0 L 729.1 155.0 L 748.2 155.0 L 748.2 155.0 L 748.5 155.0 L 748.5 155.0 L 757.3 155.0 L 757.3 151.9 L 766.5 151.9 L 766.5 151.9 L 770.7 151.9 L 770.7 155.4 L 772.0 155.4 L 772.0 155.4 L 773.9 155.4 L 773.9 151.4 L 784.9 151.4 L 784.9 151.4 L 798.0 151.4 L 798.0 151.4 L 800.3 151.4 L 800.3 151.4 L 818.5 151.4 L 818.5 147.7 L 821.0 147.7 L 821.0 160.7 L 824.0 160.7 L 824.0 261.1 L 833.5 261.1 L 833.5 261.1 L 837.2 261.1 L 837.2 261.7 L 844.6 261.7 L 844.6 266.0 L 848.9 266.0 L 848.9 266.0 L 858.0 266.0 L 858.0 266.0 L 859.6 266.0 L 859.6 266.0 L 870.8 266.0 L 870.8 259.6 L 875.1 259.6 L 875.1 259.6 L 883.9 259.6 L 883.9 259.6 L 887.8 259.6 L 887.8 259.6 L 888.4 259.6 L 888.4 259.6 L 891.3 259.6 L 891.3 259.6 L 895.6 259.6 L 895.6 259.6 L 899.0 259.6 L 899.0 259.6 L 912.1 259.6 L 912.1 259.6 L 913.8 259.6 L 913.8 259.6" fill="none" stroke="#d95926" stroke-width="2" stroke-linejoin="round"/>
</g>
<g data-selected-models="gpt-5.6-sol">
<path d="M 915.1 365.9 L 915.1 213.0 L 915.6 213.0 L 915.6 212.7 L 921.6 212.7 L 921.6 213.0 L 921.7 213.0 L 921.7 213.0 L 923.5 213.0 L 923.5 213.0 L 927.1 213.0 L 927.1 212.7 L 931.6 212.7 L 931.6 198.4 L 937.6 198.4 L 937.6 182.5 L 951.2 182.5 L 951.2 182.7 L 965.3 182.7 L 965.3 182.5 L 967.9 182.5 L 967.9 181.9 L 992.4 181.9 L 992.4 183.2 L 993.7 183.2 L 993.7 183.2 L 999.5 183.2 L 999.5 183.2 L 1004.7 183.2 L 1004.7 183.3 L 1005.3 183.3 L 1005.3 183.3 L 1009.5 183.3 L 1009.5 187.5 L 1014.4 187.5 L 1014.4 193.5 L 1016.1 193.5 L 1016.1 193.6 L 1018.1 193.6 L 1018.1 193.5 L 1019.6 193.5 L 1019.6 193.5 L 1019.9 193.5 L 1019.9 193.5 L 1021.4 193.5 L 1021.4 193.6 L 1021.7 193.6 L 1021.7 193.1 L 1030.9 193.1 L 1030.9 193.1 L 1045.9 193.1 L 1045.9 193.1 L 1047.5 193.1 L 1047.5 193.1 L 1055.0 193.1 L 1055.0 163.8 L 1055.5 163.8 L 1055.5 164.1 L 1059.2 164.1 L 1059.2 164.4 L 1060.9 164.4 L 1060.9 164.4 L 1064.9 164.4 L 1064.9 164.3 L 1067.0 164.3 L 1067.0 169.3 L 1068.0 169.3 L 1068.0 169.3 L 1068.2 169.3 L 1068.2 169.4 L 1070.0 169.4 L 1070.0 169.3 L 1070.0 355.7 L 1070.0 355.8 L 1068.2 355.8 L 1068.2 355.7 L 1068.0 355.7 L 1068.0 355.8 L 1067.0 355.8 L 1067.0 350.8 L 1064.9 350.8 L 1064.9 350.9 L 1060.9 350.9 L 1060.9 350.9 L 1059.2 350.9 L 1059.2 350.8 L 1055.5 350.8 L 1055.5 350.8 L 1055.0 350.8 L 1055.0 350.8 L 1047.5 350.8 L 1047.5 350.9 L 1045.9 350.9 L 1045.9 350.9 L 1030.9 350.9 L 1030.9 350.8 L 1021.7 350.8 L 1021.7 350.9 L 1021.4 350.9 L 1021.4 350.8 L 1019.9 350.8 L 1019.9 350.8 L 1019.6 350.8 L 1019.6 350.8 L 1018.1 350.8 L 1018.1 350.9 L 1016.1 350.9 L 1016.1 350.8 L 1014.4 350.8 L 1014.4 350.8 L 1009.5 350.8 L 1009.5 346.6 L 1005.3 346.6 L 1005.3 346.6 L 1004.7 346.6 L 1004.7 346.3 L 999.5 346.3 L 999.5 346.3 L 993.7 346.3 L 993.7 346.3 L 992.4 346.3 L 992.4 345.0 L 967.9 345.0 L 967.9 346.2 L 965.3 346.2 L 965.3 346.5 L 951.2 346.5 L 951.2 346.2 L 937.6 346.2 L 937.6 351.3 L 931.6 351.3 L 931.6 365.6 L 927.1 365.6 L 927.1 365.9 L 923.5 365.9 L 923.5 365.9 L 921.7 365.9 L 921.7 365.9 L 921.6 365.9 L 921.6 365.6 L 915.6 365.6 L 915.6 365.9 L 915.1 365.9 Z" fill="#d95926" fill-opacity="0.13" stroke="none"/>
<path d="M 915.1 213.0 L 915.6 213.0 L 915.6 212.7 L 921.6 212.7 L 921.6 213.0 L 921.7 213.0 L 921.7 213.0 L 923.5 213.0 L 923.5 213.0 L 927.1 213.0 L 927.1 212.7 L 931.6 212.7 L 931.6 198.4 L 937.6 198.4 L 937.6 182.5 L 951.2 182.5 L 951.2 182.7 L 965.3 182.7 L 965.3 182.5 L 967.9 182.5 L 967.9 181.9 L 992.4 181.9 L 992.4 183.2 L 993.7 183.2 L 993.7 183.2 L 999.5 183.2 L 999.5 183.2 L 1004.7 183.2 L 1004.7 183.3 L 1005.3 183.3 L 1005.3 183.3 L 1009.5 183.3 L 1009.5 187.5 L 1014.4 187.5 L 1014.4 193.5 L 1016.1 193.5 L 1016.1 193.6 L 1018.1 193.6 L 1018.1 193.5 L 1019.6 193.5 L 1019.6 193.5 L 1019.9 193.5 L 1019.9 193.5 L 1021.4 193.5 L 1021.4 193.6 L 1021.7 193.6 L 1021.7 193.1 L 1030.9 193.1 L 1030.9 193.1 L 1045.9 193.1 L 1045.9 193.1 L 1047.5 193.1 L 1047.5 193.1 L 1055.0 193.1 L 1055.0 163.8 L 1055.5 163.8 L 1055.5 164.1 L 1059.2 164.1 L 1059.2 164.4 L 1060.9 164.4 L 1060.9 164.4 L 1064.9 164.4 L 1064.9 164.3 L 1067.0 164.3 L 1067.0 169.3 L 1068.0 169.3 L 1068.0 169.3 L 1068.2 169.3 L 1068.2 169.4 L 1070.0 169.4 L 1070.0 169.3" fill="none" stroke="#d95926" stroke-width="2" stroke-linejoin="round"/>
</g>
</svg>
