<svg xmlns="http://www.w3.org/2000/svg" viewBox="0 0 1100 647" width="1100" height="647" role="img" aria-labelledby="chartTitle chartDesc" font-family="system-ui, -apple-system, 'Segoe UI', sans-serif">
<title id="chartTitle">Codex GPT standard native token history</title>
<desc id="chartDesc">System message and built-in tool token counts for the most recently released model in this lineage at each CLI release. System-message counts remain visible when exact native prompt measurement is available; the aggregate tool area breaks when any tool count is unavailable. Dotted markers show model API availability dates.</desc>
<line x1="80" y1="28" x2="104" y2="28" stroke="#2a78d6" stroke-width="3" stroke-linecap="round"/>
<text x="112" y="33" font-size="15" fill="#52514e">System message</text>
<line x1="300" y1="28" x2="324" y2="28" stroke="#eb6834" stroke-width="3" stroke-linecap="round"/>
<text x="332" y="33" font-size="15" fill="#52514e">Built-in tools (aggregate)</text>
<line x1="80" y1="587.0" x2="1070" y2="587.0" stroke="#e1e0d9" stroke-width="1"/>
<text x="68" y="591.0" font-size="15" fill="#898781" text-anchor="end">0</text>
<line x1="80" y1="339.5" x2="1070" y2="339.5" stroke="#e1e0d9" stroke-width="1"/>
<text x="68" y="343.5" font-size="15" fill="#898781" text-anchor="end">10k</text>
<line x1="80" y1="92.0" x2="1070" y2="92.0" stroke="#e1e0d9" stroke-width="1"/>
<text x="68" y="96.0" font-size="15" fill="#898781" text-anchor="end">20k</text>
<text x="24" y="339.5" font-size="14" fill="#898781" text-anchor="middle" letter-spacing="1.5" transform="rotate(-90 24 339.5)">TOKENS</text>
<line x1="80" y1="587" x2="1070" y2="587" stroke="#c3c2b7" stroke-width="1"/>
<text x="80.0" y="614" font-size="14" fill="#898781" text-anchor="start">Apr 2025</text>
<text x="245.0" y="614" font-size="14" fill="#898781" text-anchor="middle">Jul 2025</text>
<text x="410.0" y="614" font-size="14" fill="#898781" text-anchor="middle">Oct 2025</text>
<text x="575.0" y="614" font-size="14" fill="#898781" text-anchor="middle">Jan 2026</text>
<text x="740.0" y="614" font-size="14" fill="#898781" text-anchor="middle">Apr 2026</text>
<text x="905.0" y="614" font-size="14" fill="#898781" text-anchor="middle">Jul 2026</text>
<text x="1070.0" y="614" font-size="14" fill="#898781" text-anchor="end">Oct 2026</text>
<g data-release-date="2025-04-14"><line x1="80.0" y1="92" x2="80.0" y2="587" stroke="#898781" stroke-width="1" stroke-dasharray="2,5" stroke-linecap="round" opacity="0.7"/>
<text x="108.0" y="61.0" font-size="14" font-weight="600" fill="#52514e" text-anchor="middle">gpt-4.1</text></g>
<g data-release-date="2025-08-07"><line x1="290.2" y1="92" x2="290.2" y2="587" stroke="#898781" stroke-width="1" stroke-dasharray="2,5" stroke-linecap="round" opacity="0.7"/>
<text x="290.2" y="61.0" font-size="14" font-weight="600" fill="#52514e" text-anchor="middle">gpt-5</text></g>
<g data-release-date="2025-11-12"><line x1="467.4" y1="92" x2="467.4" y2="587" stroke="#898781" stroke-width="1" stroke-dasharray="2,5" stroke-linecap="round" opacity="0.7"/>
<text x="467.4" y="61.0" font-size="14" font-weight="600" fill="#52514e" text-anchor="middle">gpt-5.1</text></g>
<g data-release-date="2025-12-11"><line x1="520.4" y1="92" x2="520.4" y2="587" stroke="#898781" stroke-width="1" stroke-dasharray="2,5" stroke-linecap="round" opacity="0.7"/>
<text x="520.4" y="83.0" font-size="14" font-weight="600" fill="#52514e" text-anchor="middle">gpt-5.2</text></g>
<g data-release-date="2026-03-05"><line x1="673.9" y1="92" x2="673.9" y2="587" stroke="#898781" stroke-width="1" stroke-dasharray="2,5" stroke-linecap="round" opacity="0.7"/>
<text x="673.9" y="61.0" font-size="14" font-weight="600" fill="#52514e" text-anchor="middle">gpt-5.4</text></g>
<g data-release-date="2026-04-24"><line x1="765.3" y1="92" x2="765.3" y2="587" stroke="#898781" stroke-width="1" stroke-dasharray="2,5" stroke-linecap="round" opacity="0.7"/>
<text x="765.3" y="61.0" font-size="14" font-weight="600" fill="#52514e" text-anchor="middle">gpt-5.5</text></g>
<g data-release-date="2026-09-03"><line x1="1006.5" y1="92" x2="1006.5" y2="587" stroke="#898781" stroke-width="1" stroke-dasharray="2,5" stroke-linecap="round" opacity="0.7"/>
<text x="1006.5" y="61.0" font-size="14" font-weight="600" fill="#52514e" text-anchor="middle">gpt-6-astra</text></g>
<g data-selected-models="gpt-4.1">
<path d="M 85.0 587.0 L 85.0 562.4 L 85.0 562.4 L 85.0 562.4 L 85.0 562.4 L 85.0 562.4 L 85.0 562.4 L 85.0 562.4 L 85.1 562.4 L 85.1 563.2 L 85.3 563.2 L 85.3 563.3 L 85.4 563.3 L 85.4 563.3 L 87.8 563.3 L 87.8 563.2 L 87.8 563.2 L 87.8 563.2 L 87.8 563.2 L 87.8 563.2 L 94.5 563.2 L 94.5 563.2 L 95.3 563.2 L 95.3 563.2 L 96.2 563.2 L 96.2 563.2 L 101.9 563.2 L 101.9 563.2 L 111.1 563.2 L 111.1 563.2 L 114.4 563.2 L 114.4 563.2 L 131.2 563.2 L 131.2 562.8 L 136.0 562.8 L 136.0 545.8 L 136.1 545.8 L 136.1 545.8 L 139.6 545.8 L 139.6 545.8 L 139.9 545.8 L 139.9 563.7 L 139.9 563.7 L 139.9 563.7 L 140.0 563.7 L 140.0 546.3 L 140.4 546.3 L 140.4 546.3 L 142.0 546.3 L 142.0 546.3 L 142.1 546.3 L 142.1 546.3 L 142.1 546.3 L 142.1 546.3 L 142.5 546.3 L 142.5 546.3 L 142.5 546.3 L 142.5 546.3 L 145.7 546.3 L 145.7 546.3 L 164.1 546.3 L 164.1 546.3 L 235.3 546.3 L 235.3 537.2 L 235.9 537.2 L 235.9 537.2 L 238.4 537.2 L 238.4 537.2 L 240.7 537.2 L 240.7 537.2 L 244.5 537.2 L 244.5 537.2 L 247.6 537.2 L 247.6 537.2 L 255.5 537.2 L 255.5 537.2 L 262.8 537.2 L 262.8 537.2 L 266.3 537.2 L 266.3 537.2 L 281.1 537.2 L 281.1 531.0 L 286.6 531.0 L 286.6 531.3 L 288.1 531.3 L 288.1 517.1 L 289.6 517.1 L 289.6 517.1 L 290.2 517.1 L 290.2 517.1 L 290.2 587.0 Z" fill="#2a78d6" fill-opacity="0.13" stroke="none"/>
</g>
<g data-selected-models="gpt-5-2025-08-07">
<path d="M 291.5 587.0 L 291.5 464.1 L 292.1 464.1 L 292.1 464.1 L 293.9 464.1 L 293.9 464.1 L 299.7 464.1 L 299.7 464.1 L 306.4 464.1 L 306.4 462.6 L 314.4 462.6 L 314.4 462.6 L 326.2 462.6 L 326.2 457.6 L 327.4 457.6 L 327.4 453.9 L 330.7 453.9 L 330.7 453.9 L 330.8 453.9 L 330.8 453.9 L 339.4 453.9 L 339.4 453.9 L 341.0 453.9 L 341.0 453.9 L 344.9 453.9 L 344.9 447.3 L 350.3 447.3 L 350.3 447.3 L 353.6 447.3 L 353.6 447.3 L 353.8 447.3 L 353.8 447.3 L 353.9 447.3 L 353.9 447.3 L 362.8 447.3 L 362.8 443.0 L 366.5 443.0 L 366.5 443.0 L 368.6 443.0 L 368.6 443.0 L 377.3 443.0 L 377.3 443.0 L 379.2 443.0 L 379.2 443.0 L 383.0 443.0 L 383.0 443.0 L 395.6 443.0 L 395.6 443.0 L 401.3 443.0 L 401.3 443.0 L 405.5 443.0 L 405.5 443.0 L 421.2 443.0 L 421.2 443.0 L 432.7 443.0 L 432.7 443.0 L 434.2 443.0 L 434.2 443.0 L 436.2 443.0 L 436.2 443.0 L 445.1 443.0 L 445.1 443.0 L 445.6 443.0 L 445.6 443.0 L 454.3 443.0 L 454.3 443.0 L 454.4 443.0 L 454.4 443.0 L 459.7 443.0 L 459.7 443.0 L 463.7 443.0 L 463.7 443.0 L 467.4 443.0 L 467.4 443.0 L 467.4 587.0 Z" fill="#2a78d6" fill-opacity="0.13" stroke="none"/>
</g>
<g data-selected-models="gpt-5.1">
<path d="M 470.6 587.0 L 470.6 439.0 L 481.6 439.0 L 481.6 440.0 L 481.7 440.0 L 481.7 440.0 L 483.3 440.0 L 483.3 440.0 L 485.3 440.0 L 485.3 440.0 L 505.7 440.0 L 505.7 440.0 L 509.0 440.0 L 509.0 440.0 L 517.1 440.0 L 517.1 440.0 L 520.3 440.0 L 520.3 440.2 L 520.4 440.2 L 520.4 440.2 L 520.4 587.0 Z" fill="#2a78d6" fill-opacity="0.13" stroke="none"/>
</g>
<g data-selected-models="gpt-5.2">
<path d="M 521.8 587.0 L 521.8 438.8 L 524.2 438.8 L 524.2 453.8 L 529.5 453.8 L 529.5 453.8 L 534.6 453.8 L 534.6 453.8 L 534.7 453.8 L 534.7 453.8 L 536.5 453.8 L 536.5 453.8 L 539.1 453.8 L 539.1 453.8 L 569.4 453.8 L 569.4 453.8 L 569.8 453.8 L 569.8 453.8 L 574.9 453.8 L 574.9 453.8 L 584.0 453.8 L 584.0 474.8 L 584.5 474.8 L 584.5 474.8 L 585.8 474.8 L 585.8 474.8 L 586.3 474.8 L 586.3 474.8 L 587.4 474.8 L 587.4 474.8 L 596.8 474.8 L 596.8 474.8 L 598.8 474.8 L 598.8 474.8 L 603.9 474.8 L 603.9 474.8 L 604.0 474.8 L 604.0 474.8 L 607.2 474.8 L 607.2 474.8 L 614.2 474.8 L 614.2 474.8 L 618.7 474.8 L 618.7 474.8 L 621.3 474.8 L 621.3 474.8 L 622.3 474.8 L 622.3 474.8 L 623.2 474.8 L 623.2 474.8 L 624.1 474.8 L 624.1 474.8 L 635.3 474.8 L 635.3 479.7 L 637.0 479.7 L 637.0 479.7 L 637.1 479.7 L 637.1 479.7 L 646.2 479.7 L 646.2 479.7 L 646.5 479.7 L 646.5 474.8 L 647.1 474.8 L 647.1 474.8 L 660.6 474.8 L 660.6 474.8 L 662.9 474.8 L 662.9 474.8 L 669.8 474.8 L 669.8 474.8 L 673.9 474.8 L 673.9 474.8 L 673.9 587.0 Z" fill="#2a78d6" fill-opacity="0.13" stroke="none"/>
</g>
<g data-selected-models="gpt-5.4">
<path d="M 674.1 587.0 L 674.1 479.7 L 675.4 479.7 L 675.4 479.7 L 681.0 479.7 L 681.0 516.7 L 683.5 516.7 L 683.5 516.7 L 684.9 516.7 L 684.9 516.7 L 695.5 516.7 L 695.5 516.7 L 700.9 516.7 L 700.9 516.7 L 714.0 516.7 L 714.0 516.7 L 722.8 516.7 L 722.8 516.7 L 741.5 516.7 L 741.5 516.7 L 741.8 516.7 L 741.8 516.7 L 750.4 516.7 L 750.4 516.7 L 759.4 516.7 L 759.4 516.7 L 763.6 516.7 L 763.6 513.9 L 764.9 513.9 L 764.9 513.9 L 765.3 513.9 L 765.3 513.9 L 765.3 587.0 Z" fill="#2a78d6" fill-opacity="0.13" stroke="none"/>
</g>
<g data-selected-models="gpt-5.5">
<path d="M 766.7 587.0 L 766.7 479.6 L 777.6 479.6 L 777.6 479.6 L 790.4 479.6 L 790.4 479.6 L 792.7 479.6 L 792.7 479.6 L 810.6 479.6 L 810.6 479.6 L 813.0 479.6 L 813.0 479.6 L 816.0 479.6 L 816.0 479.6 L 825.3 479.6 L 825.3 479.6 L 828.9 479.6 L 828.9 479.6 L 836.2 479.6 L 836.2 479.6 L 840.4 479.6 L 840.4 479.6 L 849.3 479.6 L 849.3 479.6 L 850.9 479.6 L 850.9 479.6 L 862.0 479.6 L 862.0 479.6 L 866.2 479.6 L 866.2 479.6 L 874.8 479.6 L 874.8 479.6 L 878.7 479.6 L 878.7 479.6 L 879.2 479.6 L 879.2 479.6 L 882.1 479.6 L 882.1 479.6 L 886.3 479.6 L 886.3 479.6 L 889.7 479.6 L 889.7 479.6 L 902.5 479.6 L 902.5 479.6 L 905.5 479.6 L 905.5 479.6 L 906.0 479.6 L 906.0 479.6 L 911.9 479.6 L 911.9 479.6 L 912.0 479.6 L 912.0 479.6 L 913.7 479.6 L 913.7 479.6 L 917.2 479.6 L 917.2 479.6 L 921.7 479.6 L 921.7 479.6 L 927.5 479.6 L 927.5 479.6 L 940.9 479.6 L 940.9 479.6 L 954.8 479.6 L 954.8 479.6 L 957.3 479.6 L 957.3 479.6 L 981.4 479.6 L 981.4 479.6 L 982.7 479.6 L 982.7 479.6 L 988.4 479.6 L 988.4 479.6 L 993.5 479.6 L 993.5 479.6 L 994.1 479.6 L 994.1 479.6 L 998.3 479.6 L 998.3 479.6 L 1003.1 479.6 L 1003.1 480.4 L 1004.7 480.4 L 1004.7 480.4 L 1006.5 480.4 L 1006.5 480.4 L 1006.5 587.0 Z" fill="#2a78d6" fill-opacity="0.13" stroke="none"/>
</g>
<g data-selected-models="gpt-6-astra">
<path d="M 1006.7 587.0 L 1006.7 500.7 L 1008.2 500.7 L 1008.2 449.6 L 1008.5 449.6 L 1008.5 449.6 L 1009.9 449.6 L 1009.9 449.6 L 1010.2 449.6 L 1010.2 449.6 L 1019.2 449.6 L 1019.2 449.5 L 1034.0 449.5 L 1034.0 449.5 L 1035.6 449.5 L 1035.6 449.5 L 1042.9 449.5 L 1042.9 449.5 L 1043.4 449.5 L 1043.4 449.6 L 1047.0 449.6 L 1047.0 450.4 L 1048.8 450.4 L 1048.8 450.3 L 1052.6 450.3 L 1052.6 450.3 L 1054.7 450.3 L 1054.7 452.8 L 1055.7 452.8 L 1055.7 452.8 L 1055.9 452.8 L 1055.9 452.8 L 1057.7 452.8 L 1057.7 452.8 L 1059.4 452.8 L 1059.4 452.8 L 1066.4 452.8 L 1066.4 452.8 L 1070.0 452.8 L 1070.0 452.8 L 1070.0 587.0 Z" fill="#2a78d6" fill-opacity="0.13" stroke="none"/>
</g>
<g data-selected-models="gpt-4.1">
<path d="M 85.0 560.4 L 85.0 559.7 L 85.0 559.7 L 85.0 559.7 L 85.0 559.7 L 85.0 559.7 L 85.0 559.7 L 85.0 559.7 L 85.1 559.7 L 85.1 560.5 L 85.3 560.5 L 85.3 560.6 L 85.4 560.6 L 85.4 560.6 L 87.8 560.6 L 87.8 560.6 L 87.8 560.6 L 87.8 560.6 L 87.8 560.6 L 87.8 560.6 L 94.5 560.6 L 94.5 560.6 L 95.3 560.6 L 95.3 560.6 L 96.2 560.6 L 96.2 560.6 L 101.9 560.6 L 101.9 560.6 L 111.1 560.6 L 111.1 560.6 L 114.4 560.6 L 114.4 560.6 L 131.2 560.6 L 131.2 560.1 L 136.0 560.1 L 136.0 543.1 L 136.1 543.1 L 136.1 543.1 L 139.6 543.1 L 139.6 543.2 L 139.9 543.2 L 139.9 561.1 L 139.9 561.1 L 139.9 561.1 L 140.0 561.1 L 140.0 543.7 L 140.4 543.7 L 140.4 543.6 L 142.0 543.6 L 142.0 543.7 L 142.1 543.7 L 142.1 543.7 L 142.1 543.7 L 142.1 543.6 L 142.5 543.6 L 142.5 543.7 L 142.5 543.7 L 142.5 543.7 L 145.7 543.7 L 145.7 543.7 L 164.1 543.7 L 164.1 543.7 L 235.3 543.7 L 235.3 535.1 L 235.9 535.1 L 235.9 535.1 L 238.4 535.1 L 238.4 535.1 L 240.7 535.1 L 240.7 535.1 L 244.5 535.1 L 244.5 535.1 L 247.6 535.1 L 247.6 535.1 L 255.5 535.1 L 255.5 535.1 L 262.8 535.1 L 262.8 535.1 L 266.3 535.1 L 266.3 535.1 L 281.1 535.1 L 281.1 528.9 L 286.6 528.9 L 286.6 529.2 L 288.1 529.2 L 288.1 515.0 L 289.6 515.0 L 289.6 515.0 L 290.2 515.0 L 290.2 515.0 L 290.2 515.1 L 290.2 515.1 L 289.6 515.1 L 289.6 515.1 L 288.1 515.1 L 288.1 529.3 L 286.6 529.3 L 286.6 529.0 L 281.1 529.0 L 281.1 535.2 L 266.3 535.2 L 266.3 535.2 L 262.8 535.2 L 262.8 535.2 L 255.5 535.2 L 255.5 535.2 L 247.6 535.2 L 247.6 535.2 L 244.5 535.2 L 244.5 535.2 L 240.7 535.2 L 240.7 535.2 L 238.4 535.2 L 238.4 535.2 L 235.9 535.2 L 235.9 535.2 L 235.3 535.2 L 235.3 544.3 L 164.1 544.3 L 164.1 544.3 L 145.7 544.3 L 145.7 544.3 L 142.5 544.3 L 142.5 544.3 L 142.5 544.3 L 142.5 544.3 L 142.1 544.3 L 142.1 544.3 L 142.1 544.3 L 142.1 544.3 L 142.0 544.3 L 142.0 544.3 L 140.4 544.3 L 140.4 544.3 L 140.0 544.3 L 140.0 561.7 L 139.9 561.7 L 139.9 561.7 L 139.9 561.7 L 139.9 543.8 L 139.6 543.8 L 139.6 543.8 L 136.1 543.8 L 136.1 543.8 L 136.0 543.8 L 136.0 560.8 L 131.2 560.8 L 131.2 561.2 L 114.4 561.2 L 114.4 561.2 L 111.1 561.2 L 111.1 561.2 L 101.9 561.2 L 101.9 561.2 L 96.2 561.2 L 96.2 561.2 L 95.3 561.2 L 95.3 561.2 L 94.5 561.2 L 94.5 561.2 L 87.8 561.2 L 87.8 561.2 L 87.8 561.2 L 87.8 561.2 L 87.8 561.2 L 87.8 561.3 L 85.4 561.3 L 85.4 561.3 L 85.3 561.3 L 85.3 561.2 L 85.1 561.2 L 85.1 560.4 L 85.0 560.4 L 85.0 560.4 L 85.0 560.4 L 85.0 560.4 L 85.0 560.4 L 85.0 560.4 L 85.0 560.4 Z" fill="#eb6834" fill-opacity="0.13" stroke="none"/>
<path d="M 85.0 559.7 L 85.0 559.7 L 85.0 559.7 L 85.0 559.7 L 85.0 559.7 L 85.0 559.7 L 85.0 559.7 L 85.1 559.7 L 85.1 560.5 L 85.3 560.5 L 85.3 560.6 L 85.4 560.6 L 85.4 560.6 L 87.8 560.6 L 87.8 560.6 L 87.8 560.6 L 87.8 560.6 L 87.8 560.6 L 87.8 560.6 L 94.5 560.6 L 94.5 560.6 L 95.3 560.6 L 95.3 560.6 L 96.2 560.6 L 96.2 560.6 L 101.9 560.6 L 101.9 560.6 L 111.1 560.6 L 111.1 560.6 L 114.4 560.6 L 114.4 560.6 L 131.2 560.6 L 131.2 560.1 L 136.0 560.1 L 136.0 543.1 L 136.1 543.1 L 136.1 543.1 L 139.6 543.1 L 139.6 543.2 L 139.9 543.2 L 139.9 561.1 L 139.9 561.1 L 139.9 561.1 L 140.0 561.1 L 140.0 543.7 L 140.4 543.7 L 140.4 543.6 L 142.0 543.6 L 142.0 543.7 L 142.1 543.7 L 142.1 543.7 L 142.1 543.7 L 142.1 543.6 L 142.5 543.6 L 142.5 543.7 L 142.5 543.7 L 142.5 543.7 L 145.7 543.7 L 145.7 543.7 L 164.1 543.7 L 164.1 543.7 L 235.3 543.7 L 235.3 535.1 L 235.9 535.1 L 235.9 535.1 L 238.4 535.1 L 238.4 535.1 L 240.7 535.1 L 240.7 535.1 L 244.5 535.1 L 244.5 535.1 L 247.6 535.1 L 247.6 535.1 L 255.5 535.1 L 255.5 535.1 L 262.8 535.1 L 262.8 535.1 L 266.3 535.1 L 266.3 535.1 L 281.1 535.1 L 281.1 528.9 L 286.6 528.9 L 286.6 529.2 L 288.1 529.2 L 288.1 515.0 L 289.6 515.0 L 289.6 515.0 L 290.2 515.0 L 290.2 515.0" fill="none" stroke="#eb6834" stroke-width="2" stroke-linejoin="round"/>
</g>
<g data-selected-models="gpt-5-2025-08-07">
<path d="M 291.5 462.1 L 291.5 460.0 L 292.1 460.0 L 292.1 460.0 L 293.9 460.0 L 293.9 460.0 L 299.7 460.0 L 299.7 460.0 L 306.4 460.0 L 306.4 458.5 L 314.4 458.5 L 314.4 458.5 L 326.2 458.5 L 326.2 452.9 L 327.4 452.9 L 327.4 449.2 L 330.7 449.2 L 330.7 450.6 L 330.8 450.6 L 330.8 450.6 L 339.4 450.6 L 339.4 450.6 L 341.0 450.6 L 341.0 450.6 L 344.9 450.6 L 344.9 443.9 L 350.3 443.9 L 350.3 443.9 L 353.6 443.9 L 353.6 443.9 L 353.8 443.9 L 353.8 443.9 L 353.9 443.9 L 353.9 443.9 L 362.8 443.9 L 362.8 439.6 L 366.5 439.6 L 366.5 439.6 L 368.6 439.6 L 368.6 439.6 L 377.3 439.6 L 377.3 438.2 L 379.2 438.2 L 379.2 438.2 L 383.0 438.2 L 383.0 438.2 L 395.6 438.2 L 395.6 438.2 L 401.3 438.2 L 401.3 438.2 L 405.5 438.2 L 405.5 438.2 L 421.2 438.2 L 421.2 431.4 L 432.7 431.4 L 432.7 429.4 L 434.2 429.4 L 434.2 429.4 L 436.2 429.4 L 436.2 429.4 L 445.1 429.4 L 445.1 429.4 L 445.6 429.4 L 445.6 429.4 L 454.3 429.4 L 454.3 429.4 L 454.4 429.4 L 454.4 429.4 L 459.7 429.4 L 459.7 429.4 L 463.7 429.4 L 463.7 429.4 L 467.4 429.4 L 467.4 429.4 L 467.4 441.0 L 467.4 441.0 L 463.7 441.0 L 463.7 441.0 L 459.7 441.0 L 459.7 441.0 L 454.4 441.0 L 454.4 441.0 L 454.3 441.0 L 454.3 441.0 L 445.6 441.0 L 445.6 441.0 L 445.1 441.0 L 445.1 441.0 L 436.2 441.0 L 436.2 441.0 L 434.2 441.0 L 434.2 441.0 L 432.7 441.0 L 432.7 441.0 L 421.2 441.0 L 421.2 441.0 L 405.5 441.0 L 405.5 441.0 L 401.3 441.0 L 401.3 441.0 L 395.6 441.0 L 395.6 441.0 L 383.0 441.0 L 383.0 441.0 L 379.2 441.0 L 379.2 441.0 L 377.3 441.0 L 377.3 441.0 L 368.6 441.0 L 368.6 441.0 L 366.5 441.0 L 366.5 441.0 L 362.8 441.0 L 362.8 445.3 L 353.9 445.3 L 353.9 445.3 L 353.8 445.3 L 353.8 445.3 L 353.6 445.3 L 353.6 445.3 L 350.3 445.3 L 350.3 445.3 L 344.9 445.3 L 344.9 451.9 L 341.0 451.9 L 341.0 451.9 L 339.4 451.9 L 339.4 451.9 L 330.8 451.9 L 330.8 451.9 L 330.7 451.9 L 330.7 451.9 L 327.4 451.9 L 327.4 455.6 L 326.2 455.6 L 326.2 460.6 L 314.4 460.6 L 314.4 460.6 L 306.4 460.6 L 306.4 462.1 L 299.7 462.1 L 299.7 462.1 L 293.9 462.1 L 293.9 462.1 L 292.1 462.1 L 292.1 462.1 L 291.5 462.1 Z" fill="#eb6834" fill-opacity="0.13" stroke="none"/>
<path d="M 291.5 460.0 L 292.1 460.0 L 292.1 460.0 L 293.9 460.0 L 293.9 460.0 L 299.7 460.0 L 299.7 460.0 L 306.4 460.0 L 306.4 458.5 L 314.4 458.5 L 314.4 458.5 L 326.2 458.5 L 326.2 452.9 L 327.4 452.9 L 327.4 449.2 L 330.7 449.2 L 330.7 450.6 L 330.8 450.6 L 330.8 450.6 L 339.4 450.6 L 339.4 450.6 L 341.0 450.6 L 341.0 450.6 L 344.9 450.6 L 344.9 443.9 L 350.3 443.9 L 350.3 443.9 L 353.6 443.9 L 353.6 443.9 L 353.8 443.9 L 353.8 443.9 L 353.9 443.9 L 353.9 443.9 L 362.8 443.9 L 362.8 439.6 L 366.5 439.6 L 366.5 439.6 L 368.6 439.6 L 368.6 439.6 L 377.3 439.6 L 377.3 438.2 L 379.2 438.2 L 379.2 438.2 L 383.0 438.2 L 383.0 438.2 L 395.6 438.2 L 395.6 438.2 L 401.3 438.2 L 401.3 438.2 L 405.5 438.2 L 405.5 438.2 L 421.2 438.2 L 421.2 431.4 L 432.7 431.4 L 432.7 429.4 L 434.2 429.4 L 434.2 429.4 L 436.2 429.4 L 436.2 429.4 L 445.1 429.4 L 445.1 429.4 L 445.6 429.4 L 445.6 429.4 L 454.3 429.4 L 454.3 429.4 L 454.4 429.4 L 454.4 429.4 L 459.7 429.4 L 459.7 429.4 L 463.7 429.4 L 463.7 429.4 L 467.4 429.4 L 467.4 429.4" fill="none" stroke="#eb6834" stroke-width="2" stroke-linejoin="round"/>
</g>
<g data-selected-models="gpt-5.1">
<path d="M 470.6 437.0 L 470.6 418.8 L 481.6 418.8 L 481.6 418.9 L 481.7 418.9 L 481.7 418.9 L 483.3 418.9 L 483.3 418.9 L 485.3 418.9 L 485.3 418.9 L 505.7 418.9 L 505.7 418.9 L 509.0 418.9 L 509.0 418.9 L 517.1 418.9 L 517.1 418.5 L 520.3 418.5 L 520.3 418.6 L 520.4 418.6 L 520.4 418.6 L 520.4 438.2 L 520.4 438.2 L 520.3 438.2 L 520.3 438.0 L 517.1 438.0 L 517.1 438.0 L 509.0 438.0 L 509.0 438.0 L 505.7 438.0 L 505.7 438.0 L 485.3 438.0 L 485.3 438.0 L 483.3 438.0 L 483.3 438.0 L 481.7 438.0 L 481.7 438.0 L 481.6 438.0 L 481.6 437.0 L 470.6 437.0 Z" fill="#eb6834" fill-opacity="0.13" stroke="none"/>
<path d="M 470.6 418.8 L 481.6 418.8 L 481.6 418.9 L 481.7 418.9 L 481.7 418.9 L 483.3 418.9 L 483.3 418.9 L 485.3 418.9 L 485.3 418.9 L 505.7 418.9 L 505.7 418.9 L 509.0 418.9 L 509.0 418.9 L 517.1 418.9 L 517.1 418.5 L 520.3 418.5 L 520.3 418.6 L 520.4 418.6 L 520.4 418.6" fill="none" stroke="#eb6834" stroke-width="2" stroke-linejoin="round"/>
</g>
<g data-selected-models="gpt-5.2">
<path d="M 521.8 436.8 L 521.8 417.1 L 524.2 417.1 L 524.2 432.0 L 529.5 432.0 L 529.5 432.0 L 534.6 432.0 L 534.6 432.2 L 534.7 432.2 L 534.7 432.2 L 536.5 432.2 L 536.5 432.2 L 539.1 432.2 L 539.1 432.2 L 569.4 432.2 L 569.4 432.2 L 569.8 432.2 L 569.8 432.2 L 574.9 432.2 L 574.9 432.2 L 584.0 432.2 L 584.0 452.7 L 584.5 452.7 L 584.5 452.7 L 585.8 452.7 L 585.8 452.7 L 586.3 452.7 L 586.3 452.7 L 587.4 452.7 L 587.4 452.7 L 596.8 452.7 L 596.8 452.7 L 598.8 452.7 L 598.8 452.7 L 603.9 452.7 L 603.9 452.7 L 604.0 452.7 L 604.0 452.7 L 607.2 452.7 L 607.2 342.9 L 614.2 342.9 L 614.2 340.0 L 618.7 340.0 L 618.7 335.6 L 621.3 335.6 L 621.3 335.4 L 622.3 335.4 L 622.3 331.6 L 623.2 331.6 L 623.2 331.6 L 624.1 331.6 L 624.1 331.6 L 635.3 331.6 L 635.3 343.2 L 637.0 343.2 L 637.0 343.2 L 637.1 343.2 L 637.1 343.2 L 646.2 343.2 L 646.2 350.0 L 646.5 350.0 L 646.5 338.4 L 647.1 338.4 L 647.1 338.4 L 660.6 338.4 L 660.6 338.4 L 662.9 338.4 L 662.9 338.4 L 669.8 338.4 L 669.8 338.4 L 673.9 338.4 L 673.9 338.4 L 673.9 472.8 L 673.9 472.8 L 669.8 472.8 L 669.8 472.8 L 662.9 472.8 L 662.9 472.8 L 660.6 472.8 L 660.6 472.8 L 647.1 472.8 L 647.1 472.8 L 646.5 472.8 L 646.5 477.7 L 646.2 477.7 L 646.2 477.7 L 637.1 477.7 L 637.1 477.7 L 637.0 477.7 L 637.0 477.7 L 635.3 477.7 L 635.3 472.8 L 624.1 472.8 L 624.1 472.8 L 623.2 472.8 L 623.2 472.8 L 622.3 472.8 L 622.3 472.8 L 621.3 472.8 L 621.3 472.8 L 618.7 472.8 L 618.7 472.8 L 614.2 472.8 L 614.2 472.8 L 607.2 472.8 L 607.2 472.8 L 604.0 472.8 L 604.0 472.8 L 603.9 472.8 L 603.9 472.8 L 598.8 472.8 L 598.8 472.8 L 596.8 472.8 L 596.8 472.8 L 587.4 472.8 L 587.4 472.8 L 586.3 472.8 L 586.3 472.8 L 585.8 472.8 L 585.8 472.8 L 584.5 472.8 L 584.5 472.8 L 584.0 472.8 L 584.0 451.8 L 574.9 451.8 L 574.9 451.8 L 569.8 451.8 L 569.8 451.8 L 569.4 451.8 L 569.4 451.8 L 539.1 451.8 L 539.1 451.8 L 536.5 451.8 L 536.5 451.8 L 534.7 451.8 L 534.7 451.8 L 534.6 451.8 L 534.6 451.8 L 529.5 451.8 L 529.5 451.8 L 524.2 451.8 L 524.2 436.8 L 521.8 436.8 Z" fill="#eb6834" fill-opacity="0.13" stroke="none"/>
<path d="M 521.8 417.1 L 524.2 417.1 L 524.2 432.0 L 529.5 432.0 L 529.5 432.0 L 534.6 432.0 L 534.6 432.2 L 534.7 432.2 L 534.7 432.2 L 536.5 432.2 L 536.5 432.2 L 539.1 432.2 L 539.1 432.2 L 569.4 432.2 L 569.4 432.2 L 569.8 432.2 L 569.8 432.2 L 574.9 432.2 L 574.9 432.2 L 584.0 432.2 L 584.0 452.7 L 584.5 452.7 L 584.5 452.7 L 585.8 452.7 L 585.8 452.7 L 586.3 452.7 L 586.3 452.7 L 587.4 452.7 L 587.4 452.7 L 596.8 452.7 L 596.8 452.7 L 598.8 452.7 L 598.8 452.7 L 603.9 452.7 L 603.9 452.7 L 604.0 452.7 L 604.0 452.7 L 607.2 452.7 L 607.2 342.9 L 614.2 342.9 L 614.2 340.0 L 618.7 340.0 L 618.7 335.6 L 621.3 335.6 L 621.3 335.4 L 622.3 335.4 L 622.3 331.6 L 623.2 331.6 L 623.2 331.6 L 624.1 331.6 L 624.1 331.6 L 635.3 331.6 L 635.3 343.2 L 637.0 343.2 L 637.0 343.2 L 637.1 343.2 L 637.1 343.2 L 646.2 343.2 L 646.2 350.0 L 646.5 350.0 L 646.5 338.4 L 647.1 338.4 L 647.1 338.4 L 660.6 338.4 L 660.6 338.4 L 662.9 338.4 L 662.9 338.4 L 669.8 338.4 L 669.8 338.4 L 673.9 338.4 L 673.9 338.4" fill="none" stroke="#eb6834" stroke-width="2" stroke-linejoin="round"/>
</g>
<g data-selected-models="gpt-5.4">
<path d="M 674.1 477.7 L 674.1 350.0 L 675.4 350.0 L 675.4 350.0 L 681.0 350.0 L 681.0 380.3 L 683.5 380.3 L 683.5 380.3 L 684.9 380.3 L 684.9 380.3 L 695.5 380.3 L 695.5 321.7 L 700.9 321.7 L 700.9 321.6 L 714.0 321.6 L 714.0 321.6 L 722.8 321.6 L 722.8 321.6 L 741.5 321.6 L 741.5 321.6 L 741.8 321.6 L 741.8 321.6 L 750.4 321.6 L 750.4 320.1 L 759.4 320.1 L 759.4 320.1 L 763.6 320.1 L 763.6 319.0 L 764.9 319.0 L 764.9 319.0 L 765.3 319.0 L 765.3 319.0 L 765.3 511.9 L 765.3 511.9 L 764.9 511.9 L 764.9 511.9 L 763.6 511.9 L 763.6 514.7 L 759.4 514.7 L 759.4 514.7 L 750.4 514.7 L 750.4 514.7 L 741.8 514.7 L 741.8 514.7 L 741.5 514.7 L 741.5 514.7 L 722.8 514.7 L 722.8 514.7 L 714.0 514.7 L 714.0 514.7 L 700.9 514.7 L 700.9 514.7 L 695.5 514.7 L 695.5 514.7 L 684.9 514.7 L 684.9 514.7 L 683.5 514.7 L 683.5 514.7 L 681.0 514.7 L 681.0 477.7 L 675.4 477.7 L 675.4 477.7 L 674.1 477.7 Z" fill="#eb6834" fill-opacity="0.13" stroke="none"/>
<path d="M 674.1 350.0 L 675.4 350.0 L 675.4 350.0 L 681.0 350.0 L 681.0 380.3 L 683.5 380.3 L 683.5 380.3 L 684.9 380.3 L 684.9 380.3 L 695.5 380.3 L 695.5 321.7 L 700.9 321.7 L 700.9 321.6 L 714.0 321.6 L 714.0 321.6 L 722.8 321.6 L 722.8 321.6 L 741.5 321.6 L 741.5 321.6 L 741.8 321.6 L 741.8 321.6 L 750.4 321.6 L 750.4 320.1 L 759.4 320.1 L 759.4 320.1 L 763.6 320.1 L 763.6 319.0 L 764.9 319.0 L 764.9 319.0 L 765.3 319.0 L 765.3 319.0" fill="none" stroke="#eb6834" stroke-width="2" stroke-linejoin="round"/>
</g>
<g data-selected-models="gpt-5.5">
<path d="M 766.7 477.6 L 766.7 282.8 L 777.6 282.8 L 777.6 282.8 L 790.4 282.8 L 790.4 282.8 L 792.7 282.8 L 792.7 282.8 L 810.6 282.8 L 810.6 280.9 L 813.0 280.9 L 813.0 287.4 L 816.0 287.4 L 816.0 337.6 L 825.3 337.6 L 825.3 337.6 L 828.9 337.6 L 828.9 337.9 L 836.2 337.9 L 836.2 340.0 L 840.4 340.0 L 840.4 340.0 L 849.3 340.0 L 849.3 340.0 L 850.9 340.0 L 850.9 340.0 L 862.0 340.0 L 862.0 336.8 L 866.2 336.8 L 866.2 336.8 L 874.8 336.8 L 874.8 336.8 L 878.7 336.8 L 878.7 336.8 L 879.2 336.8 L 879.2 336.8 L 882.1 336.8 L 882.1 336.8 L 886.3 336.8 L 886.3 336.8 L 889.7 336.8 L 889.7 336.8 L 902.5 336.8 L 902.5 336.8 L 905.5 336.8 L 905.5 336.8 L 906.0 336.8 L 906.0 336.8 L 911.9 336.8 L 911.9 336.8 L 912.0 336.8 L 912.0 336.8 L 913.7 336.8 L 913.7 336.8 L 917.2 336.8 L 917.2 336.8 L 921.7 336.8 L 921.7 336.8 L 927.5 336.8 L 927.5 336.8 L 940.9 336.8 L 940.9 336.8 L 954.8 336.8 L 954.8 336.8 L 957.3 336.8 L 957.3 340.0 L 981.4 340.0 L 981.4 340.0 L 982.7 340.0 L 982.7 340.0 L 988.4 340.0 L 988.4 340.0 L 993.5 340.0 L 993.5 340.0 L 994.1 340.0 L 994.1 340.0 L 998.3 340.0 L 998.3 340.0 L 1003.1 340.0 L 1003.1 343.1 L 1004.7 343.1 L 1004.7 343.1 L 1006.5 343.1 L 1006.5 343.1 L 1006.5 478.4 L 1006.5 478.4 L 1004.7 478.4 L 1004.7 478.4 L 1003.1 478.4 L 1003.1 477.6 L 998.3 477.6 L 998.3 477.6 L 994.1 477.6 L 994.1 477.6 L 993.5 477.6 L 993.5 477.6 L 988.4 477.6 L 988.4 477.6 L 982.7 477.6 L 982.7 477.6 L 981.4 477.6 L 981.4 477.6 L 957.3 477.6 L 957.3 477.6 L 954.8 477.6 L 954.8 477.6 L 940.9 477.6 L 940.9 477.6 L 927.5 477.6 L 927.5 477.6 L 921.7 477.6 L 921.7 477.6 L 917.2 477.6 L 917.2 477.6 L 913.7 477.6 L 913.7 477.6 L 912.0 477.6 L 912.0 477.6 L 911.9 477.6 L 911.9 477.6 L 906.0 477.6 L 906.0 477.6 L 905.5 477.6 L 905.5 477.6 L 902.5 477.6 L 902.5 477.6 L 889.7 477.6 L 889.7 477.6 L 886.3 477.6 L 886.3 477.6 L 882.1 477.6 L 882.1 477.6 L 879.2 477.6 L 879.2 477.6 L 878.7 477.6 L 878.7 477.6 L 874.8 477.6 L 874.8 477.6 L 866.2 477.6 L 866.2 477.6 L 862.0 477.6 L 862.0 477.6 L 850.9 477.6 L 850.9 477.6 L 849.3 477.6 L 849.3 477.6 L 840.4 477.6 L 840.4 477.6 L 836.2 477.6 L 836.2 477.6 L 828.9 477.6 L 828.9 477.6 L 825.3 477.6 L 825.3 477.6 L 816.0 477.6 L 816.0 477.6 L 813.0 477.6 L 813.0 477.6 L 810.6 477.6 L 810.6 477.6 L 792.7 477.6 L 792.7 477.6 L 790.4 477.6 L 790.4 477.6 L 777.6 477.6 L 777.6 477.6 L 766.7 477.6 Z" fill="#eb6834" fill-opacity="0.13" stroke="none"/>
<path d="M 766.7 282.8 L 777.6 282.8 L 777.6 282.8 L 790.4 282.8 L 790.4 282.8 L 792.7 282.8 L 792.7 282.8 L 810.6 282.8 L 810.6 280.9 L 813.0 280.9 L 813.0 287.4 L 816.0 287.4 L 816.0 337.6 L 825.3 337.6 L 825.3 337.6 L 828.9 337.6 L 828.9 337.9 L 836.2 337.9 L 836.2 340.0 L 840.4 340.0 L 840.4 340.0 L 849.3 340.0 L 849.3 340.0 L 850.9 340.0 L 850.9 340.0 L 862.0 340.0 L 862.0 336.8 L 866.2 336.8 L 866.2 336.8 L 874.8 336.8 L 874.8 336.8 L 878.7 336.8 L 878.7 336.8 L 879.2 336.8 L 879.2 336.8 L 882.1 336.8 L 882.1 336.8 L 886.3 336.8 L 886.3 336.8 L 889.7 336.8 L 889.7 336.8 L 902.5 336.8 L 902.5 336.8 L 905.5 336.8 L 905.5 336.8 L 906.0 336.8 L 906.0 336.8 L 911.9 336.8 L 911.9 336.8 L 912.0 336.8 L 912.0 336.8 L 913.7 336.8 L 913.7 336.8 L 917.2 336.8 L 917.2 336.8 L 921.7 336.8 L 921.7 336.8 L 927.5 336.8 L 927.5 336.8 L 940.9 336.8 L 940.9 336.8 L 954.8 336.8 L 954.8 336.8 L 957.3 336.8 L 957.3 340.0 L 981.4 340.0 L 981.4 340.0 L 982.7 340.0 L 982.7 340.0 L 988.4 340.0 L 988.4 340.0 L 993.5 340.0 L 993.5 340.0 L 994.1 340.0 L 994.1 340.0 L 998.3 340.0 L 998.3 340.0 L 1003.1 340.0 L 1003.1 343.1 L 1004.7 343.1 L 1004.7 343.1 L 1006.5 343.1 L 1006.5 343.1" fill="none" stroke="#eb6834" stroke-width="2" stroke-linejoin="round"/>
</g>
<g data-selected-models="gpt-6-astra">
<path d="M 1006.7 498.7 L 1006.7 330.7 L 1008.2 330.7 L 1008.2 359.5 L 1008.5 359.5 L 1008.5 359.5 L 1009.9 359.5 L 1009.9 359.5 L 1010.2 359.5 L 1010.2 359.2 L 1019.2 359.2 L 1019.2 359.2 L 1034.0 359.2 L 1034.0 359.2 L 1035.6 359.2 L 1035.6 359.2 L 1042.9 359.2 L 1042.9 344.5 L 1043.4 344.5 L 1043.4 344.7 L 1047.0 344.7 L 1047.0 345.6 L 1048.8 345.6 L 1048.8 345.6 L 1052.6 345.6 L 1052.6 345.6 L 1054.7 345.6 L 1054.7 348.1 L 1055.7 348.1 L 1055.7 348.1 L 1055.9 348.1 L 1055.9 348.1 L 1057.7 348.1 L 1057.7 348.2 L 1059.4 348.2 L 1059.4 348.2 L 1066.4 348.2 L 1066.4 348.1 L 1070.0 348.1 L 1070.0 348.1 L 1070.0 450.8 L 1070.0 450.8 L 1066.4 450.8 L 1066.4 450.8 L 1059.4 450.8 L 1059.4 450.8 L 1057.7 450.8 L 1057.7 450.8 L 1055.9 450.8 L 1055.9 450.8 L 1055.7 450.8 L 1055.7 450.8 L 1054.7 450.8 L 1054.7 448.3 L 1052.6 448.3 L 1052.6 448.3 L 1048.8 448.3 L 1048.8 448.4 L 1047.0 448.4 L 1047.0 447.6 L 1043.4 447.6 L 1043.4 447.5 L 1042.9 447.5 L 1042.9 447.5 L 1035.6 447.5 L 1035.6 447.5 L 1034.0 447.5 L 1034.0 447.5 L 1019.2 447.5 L 1019.2 447.6 L 1010.2 447.6 L 1010.2 447.6 L 1009.9 447.6 L 1009.9 447.6 L 1008.5 447.6 L 1008.5 447.6 L 1008.2 447.6 L 1008.2 498.7 L 1006.7 498.7 Z" fill="#eb6834" fill-opacity="0.13" stroke="none"/>
<path d="M 1006.7 330.7 L 1008.2 330.7 L 1008.2 359.5 L 1008.5 359.5 L 1008.5 359.5 L 1009.9 359.5 L 1009.9 359.5 L 1010.2 359.5 L 1010.2 359.2 L 1019.2 359.2 L 1019.2 359.2 L 1034.0 359.2 L 1034.0 359.2 L 1035.6 359.2 L 1035.6 359.2 L 1042.9 359.2 L 1042.9 344.5 L 1043.4 344.5 L 1043.4 344.7 L 1047.0 344.7 L 1047.0 345.6 L 1048.8 345.6 L 1048.8 345.6 L 1052.6 345.6 L 1052.6 345.6 L 1054.7 345.6 L 1054.7 348.1 L 1055.7 348.1 L 1055.7 348.1 L 1055.9 348.1 L 1055.9 348.1 L 1057.7 348.1 L 1057.7 348.2 L 1059.4 348.2 L 1059.4 348.2 L 1066.4 348.2 L 1066.4 348.1 L 1070.0 348.1 L 1070.0 348.1" fill="none" stroke="#eb6834" stroke-width="2" stroke-linejoin="round"/>
</g>
</svg>
