<svg xmlns="http://www.w3.org/2000/svg" viewBox="0 0 1100 647" width="1100" height="647" role="img" aria-labelledby="chartTitle chartDesc" font-family="system-ui, -apple-system, 'Segoe UI', sans-serif">
<title id="chartTitle">Codex Codex standard native token history</title>
<desc id="chartDesc">System message and built-in tool token counts for the most recently released model in this lineage at each CLI release. System-message counts remain visible when exact native prompt measurement is available; the aggregate tool area breaks when any tool count is unavailable. Dotted markers show model API availability dates.</desc>
<rect x="0" y="0" width="1100" height="647" fill="#1a1a19"/>
<line x1="80" y1="28" x2="104" y2="28" stroke="#3987e5" stroke-width="3" stroke-linecap="round"/>
<text x="112" y="33" font-size="15" fill="#c3c2b7">System message</text>
<line x1="300" y1="28" x2="324" y2="28" stroke="#d95926" stroke-width="3" stroke-linecap="round"/>
<text x="332" y="33" font-size="15" fill="#c3c2b7">Built-in tools (aggregate)</text>
<line x1="80" y1="587.0" x2="1070" y2="587.0" stroke="#2c2c2a" stroke-width="1"/>
<text x="68" y="591.0" font-size="15" fill="#898781" text-anchor="end">0</text>
<line x1="80" y1="92.0" x2="1070" y2="92.0" stroke="#2c2c2a" stroke-width="1"/>
<text x="68" y="96.0" font-size="15" fill="#898781" text-anchor="end">10k</text>
<text x="24" y="339.5" font-size="14" fill="#898781" text-anchor="middle" letter-spacing="1.5" transform="rotate(-90 24 339.5)">TOKENS</text>
<line x1="80" y1="587" x2="1070" y2="587" stroke="#383835" stroke-width="1"/>
<text x="80.0" y="614" font-size="14" fill="#898781" text-anchor="start">Apr 2025</text>
<text x="245.0" y="614" font-size="14" fill="#898781" text-anchor="middle">Jul 2025</text>
<text x="410.0" y="614" font-size="14" fill="#898781" text-anchor="middle">Oct 2025</text>
<text x="575.0" y="614" font-size="14" fill="#898781" text-anchor="middle">Jan 2026</text>
<text x="740.0" y="614" font-size="14" fill="#898781" text-anchor="middle">Apr 2026</text>
<text x="905.0" y="614" font-size="14" fill="#898781" text-anchor="middle">Jul 2026</text>
<text x="1070.0" y="614" font-size="14" fill="#898781" text-anchor="end">Oct 2026</text>
<g data-release-date="2025-09-23"><line x1="372.6" y1="92" x2="372.6" y2="587" stroke="#898781" stroke-width="1" stroke-dasharray="2,5" stroke-linecap="round" opacity="0.7"/>
<text x="372.6" y="61.0" font-size="14" font-weight="600" fill="#c3c2b7" text-anchor="middle">gpt-5-codex</text></g>
<g data-release-date="2025-11-12"><line x1="464.4" y1="92" x2="464.4" y2="587" stroke="#898781" stroke-width="1" stroke-dasharray="2,5" stroke-linecap="round" opacity="0.7"/>
<text x="464.4" y="83.0" font-size="14" font-weight="600" fill="#c3c2b7" text-anchor="middle">gpt-5.1-codex</text></g>
<g data-release-date="2025-12-18"><line x1="530.5" y1="92" x2="530.5" y2="587" stroke="#898781" stroke-width="1" stroke-dasharray="2,5" stroke-linecap="round" opacity="0.7"/>
<text x="530.5" y="61.0" font-size="14" font-weight="600" fill="#c3c2b7" text-anchor="middle">gpt-5.2-codex</text></g>
<g data-release-date="2026-02-05"><line x1="620.5" y1="92" x2="620.5" y2="587" stroke="#898781" stroke-width="1" stroke-dasharray="2,5" stroke-linecap="round" opacity="0.7"/>
<text x="620.5" y="83.0" font-size="14" font-weight="600" fill="#c3c2b7" text-anchor="middle">gpt-5.3-codex</text></g>
<g data-release-date="2026-07-09"><line x1="903.4" y1="92" x2="903.4" y2="587" stroke="#898781" stroke-width="1" stroke-dasharray="2,5" stroke-linecap="round" opacity="0.7"/>
<text x="903.4" y="61.0" font-size="14" font-weight="600" fill="#c3c2b7" text-anchor="middle">gpt-5.6-sol</text></g>
<g data-selected-models="gpt-5.3-codex">
<path d="M 620.9 587.0 L 620.9 334.2 L 621.8 334.2 L 621.8 334.2 L 633.1 334.2 L 633.1 371.4 L 634.8 371.4 L 634.8 371.4 L 634.9 371.4 L 634.9 371.4 L 644.1 371.4 L 644.1 371.4 L 644.3 371.4 L 644.3 462.8 L 644.9 462.8 L 644.9 462.8 L 658.6 462.8 L 658.6 461.9 L 660.9 461.9 L 660.9 461.9 L 667.8 461.9 L 667.8 461.9 L 672.1 461.9 L 672.1 461.9 L 673.4 461.9 L 673.4 461.9 L 679.0 461.9 L 679.0 461.5 L 681.5 461.5 L 681.5 461.5 L 683.0 461.5 L 683.0 461.5 L 693.7 461.5 L 693.7 461.5 L 699.0 461.5 L 699.0 461.5 L 712.2 461.5 L 712.2 461.5 L 721.0 461.5 L 721.0 461.5 L 739.8 461.5 L 739.8 461.5 L 740.1 461.5 L 740.1 461.5 L 748.8 461.5 L 748.8 461.5 L 757.9 461.5 L 757.9 461.5 L 762.1 461.5 L 762.1 461.5 L 763.4 461.5 L 763.4 461.5 L 765.2 461.5 L 765.2 461.5 L 776.1 461.5 L 776.1 461.5 L 789.0 461.5 L 789.0 461.5 L 791.3 461.5 L 791.3 461.5 L 809.3 461.5 L 809.3 461.5 L 811.7 461.5 L 811.7 461.5 L 814.7 461.5 L 814.7 461.5 L 824.1 461.5 L 824.1 461.5 L 827.7 461.5 L 827.7 461.5 L 835.0 461.5 L 835.0 461.5 L 839.2 461.5 L 839.2 461.5 L 848.2 461.5 L 848.2 461.5 L 849.8 461.5 L 849.8 461.5 L 860.9 461.5 L 860.9 461.5 L 865.2 461.5 L 865.2 461.5 L 873.9 461.5 L 873.9 461.5 L 877.7 461.5 L 877.7 461.5 L 878.2 461.5 L 878.2 461.5 L 881.1 461.5 L 881.1 461.5 L 885.4 461.5 L 885.4 461.5 L 888.8 461.5 L 888.8 461.5 L 901.7 461.5 L 901.7 461.5 L 903.4 461.5 L 903.4 461.5 L 903.4 587.0 Z" fill="#3987e5" fill-opacity="0.13" stroke="none"/>
</g>
<g data-selected-models="gpt-5.6-sol">
<path d="M 904.7 587.0 L 904.7 367.9 L 905.1 367.9 L 905.1 367.6 L 911.1 367.6 L 911.1 367.9 L 911.2 367.9 L 911.2 367.9 L 913.0 367.9 L 913.0 367.9 L 916.5 367.9 L 916.5 367.6 L 921.0 367.6 L 921.0 353.3 L 926.8 353.3 L 926.8 348.2 L 940.2 348.2 L 940.2 348.5 L 954.2 348.5 L 954.2 348.2 L 956.8 348.2 L 956.8 347.0 L 981.0 347.0 L 981.0 348.3 L 982.2 348.3 L 982.2 348.3 L 988.0 348.3 L 988.0 348.3 L 993.1 348.3 L 993.1 348.6 L 993.7 348.6 L 993.7 348.6 L 997.9 348.6 L 997.9 352.8 L 1002.7 352.8 L 1002.7 352.8 L 1004.3 352.8 L 1004.3 352.9 L 1006.4 352.9 L 1006.4 352.8 L 1007.9 352.8 L 1007.9 352.8 L 1008.2 352.8 L 1008.2 352.8 L 1009.6 352.8 L 1009.6 352.9 L 1009.9 352.9 L 1009.9 352.8 L 1019.0 352.8 L 1019.0 352.9 L 1033.8 352.9 L 1033.8 352.9 L 1035.4 352.9 L 1035.4 352.8 L 1042.7 352.8 L 1042.7 352.8 L 1043.3 352.8 L 1043.3 352.8 L 1046.9 352.8 L 1046.9 352.9 L 1048.6 352.9 L 1048.6 352.9 L 1052.6 352.9 L 1052.6 352.8 L 1054.6 352.8 L 1054.6 357.8 L 1055.7 357.8 L 1055.7 357.7 L 1055.8 357.7 L 1055.8 357.8 L 1057.6 357.8 L 1057.6 357.7 L 1059.3 357.7 L 1059.3 357.8 L 1066.4 357.8 L 1066.4 357.8 L 1070.0 357.8 L 1070.0 357.8 L 1070.0 587.0 Z" fill="#3987e5" fill-opacity="0.13" stroke="none"/>
</g>
<g data-selected-models="gpt-5.3-codex">
<path d="M 620.9 332.2 L 620.9 144.7 L 621.8 144.7 L 621.8 144.7 L 633.1 144.7 L 633.1 181.9 L 634.8 181.9 L 634.8 181.9 L 634.9 181.9 L 634.9 181.9 L 644.1 181.9 L 644.1 195.5 L 644.3 195.5 L 644.3 273.6 L 644.9 273.6 L 644.9 273.6 L 658.6 273.6 L 658.6 272.7 L 660.9 272.7 L 660.9 272.7 L 667.8 272.7 L 667.8 272.7 L 672.1 272.7 L 672.1 272.7 L 673.4 272.7 L 673.4 272.7 L 679.0 272.7 L 679.0 272.3 L 681.5 272.3 L 681.5 272.3 L 683.0 272.3 L 683.0 272.3 L 693.7 272.3 L 693.7 155.2 L 699.0 155.2 L 699.0 155.0 L 712.2 155.0 L 712.2 155.0 L 721.0 155.0 L 721.0 155.0 L 739.8 155.0 L 739.8 155.0 L 740.1 155.0 L 740.1 155.0 L 748.8 155.0 L 748.8 151.9 L 757.9 151.9 L 757.9 151.9 L 762.1 151.9 L 762.1 155.4 L 763.4 155.4 L 763.4 155.4 L 765.2 155.4 L 765.2 151.4 L 776.1 151.4 L 776.1 151.4 L 789.0 151.4 L 789.0 151.4 L 791.3 151.4 L 791.3 151.4 L 809.3 151.4 L 809.3 147.7 L 811.7 147.7 L 811.7 160.7 L 814.7 160.7 L 814.7 261.1 L 824.1 261.1 L 824.1 261.1 L 827.7 261.1 L 827.7 261.7 L 835.0 261.7 L 835.0 266.0 L 839.2 266.0 L 839.2 266.0 L 848.2 266.0 L 848.2 266.0 L 849.8 266.0 L 849.8 266.0 L 860.9 266.0 L 860.9 259.6 L 865.2 259.6 L 865.2 259.6 L 873.9 259.6 L 873.9 259.6 L 877.7 259.6 L 877.7 259.6 L 878.2 259.6 L 878.2 259.6 L 881.1 259.6 L 881.1 259.6 L 885.4 259.6 L 885.4 259.6 L 888.8 259.6 L 888.8 259.6 L 901.7 259.6 L 901.7 259.6 L 903.4 259.6 L 903.4 259.6 L 903.4 459.5 L 903.4 459.5 L 901.7 459.5 L 901.7 459.5 L 888.8 459.5 L 888.8 459.5 L 885.4 459.5 L 885.4 459.5 L 881.1 459.5 L 881.1 459.5 L 878.2 459.5 L 878.2 459.5 L 877.7 459.5 L 877.7 459.5 L 873.9 459.5 L 873.9 459.5 L 865.2 459.5 L 865.2 459.5 L 860.9 459.5 L 860.9 459.5 L 849.8 459.5 L 849.8 459.5 L 848.2 459.5 L 848.2 459.5 L 839.2 459.5 L 839.2 459.5 L 835.0 459.5 L 835.0 459.5 L 827.7 459.5 L 827.7 459.5 L 824.1 459.5 L 824.1 459.5 L 814.7 459.5 L 814.7 459.5 L 811.7 459.5 L 811.7 459.5 L 809.3 459.5 L 809.3 459.5 L 791.3 459.5 L 791.3 459.5 L 789.0 459.5 L 789.0 459.5 L 776.1 459.5 L 776.1 459.5 L 765.2 459.5 L 765.2 459.5 L 763.4 459.5 L 763.4 459.5 L 762.1 459.5 L 762.1 459.5 L 757.9 459.5 L 757.9 459.5 L 748.8 459.5 L 748.8 459.5 L 740.1 459.5 L 740.1 459.5 L 739.8 459.5 L 739.8 459.5 L 721.0 459.5 L 721.0 459.5 L 712.2 459.5 L 712.2 459.5 L 699.0 459.5 L 699.0 459.5 L 693.7 459.5 L 693.7 459.5 L 683.0 459.5 L 683.0 459.5 L 681.5 459.5 L 681.5 459.5 L 679.0 459.5 L 679.0 459.9 L 673.4 459.9 L 673.4 459.9 L 672.1 459.9 L 672.1 459.9 L 667.8 459.9 L 667.8 459.9 L 660.9 459.9 L 660.9 459.9 L 658.6 459.9 L 658.6 460.8 L 644.9 460.8 L 644.9 460.8 L 644.3 460.8 L 644.3 369.4 L 644.1 369.4 L 644.1 369.4 L 634.9 369.4 L 634.9 369.4 L 634.8 369.4 L 634.8 369.4 L 633.1 369.4 L 633.1 332.2 L 621.8 332.2 L 621.8 332.2 L 620.9 332.2 Z" fill="#d95926" fill-opacity="0.13" stroke="none"/>
<path d="M 620.9 144.7 L 621.8 144.7 L 621.8 144.7 L 633.1 144.7 L 633.1 181.9 L 634.8 181.9 L 634.8 181.9 L 634.9 181.9 L 634.9 181.9 L 644.1 181.9 L 644.1 195.5 L 644.3 195.5 L 644.3 273.6 L 644.9 273.6 L 644.9 273.6 L 658.6 273.6 L 658.6 272.7 L 660.9 272.7 L 660.9 272.7 L 667.8 272.7 L 667.8 272.7 L 672.1 272.7 L 672.1 272.7 L 673.4 272.7 L 673.4 272.7 L 679.0 272.7 L 679.0 272.3 L 681.5 272.3 L 681.5 272.3 L 683.0 272.3 L 683.0 272.3 L 693.7 272.3 L 693.7 155.2 L 699.0 155.2 L 699.0 155.0 L 712.2 155.0 L 712.2 155.0 L 721.0 155.0 L 721.0 155.0 L 739.8 155.0 L 739.8 155.0 L 740.1 155.0 L 740.1 155.0 L 748.8 155.0 L 748.8 151.9 L 757.9 151.9 L 757.9 151.9 L 762.1 151.9 L 762.1 155.4 L 763.4 155.4 L 763.4 155.4 L 765.2 155.4 L 765.2 151.4 L 776.1 151.4 L 776.1 151.4 L 789.0 151.4 L 789.0 151.4 L 791.3 151.4 L 791.3 151.4 L 809.3 151.4 L 809.3 147.7 L 811.7 147.7 L 811.7 160.7 L 814.7 160.7 L 814.7 261.1 L 824.1 261.1 L 824.1 261.1 L 827.7 261.1 L 827.7 261.7 L 835.0 261.7 L 835.0 266.0 L 839.2 266.0 L 839.2 266.0 L 848.2 266.0 L 848.2 266.0 L 849.8 266.0 L 849.8 266.0 L 860.9 266.0 L 860.9 259.6 L 865.2 259.6 L 865.2 259.6 L 873.9 259.6 L 873.9 259.6 L 877.7 259.6 L 877.7 259.6 L 878.2 259.6 L 878.2 259.6 L 881.1 259.6 L 881.1 259.6 L 885.4 259.6 L 885.4 259.6 L 888.8 259.6 L 888.8 259.6 L 901.7 259.6 L 901.7 259.6 L 903.4 259.6 L 903.4 259.6" fill="none" stroke="#d95926" stroke-width="2" stroke-linejoin="round"/>
</g>
<g data-selected-models="gpt-5.6-sol">
<path d="M 904.7 365.9 L 904.7 213.0 L 905.1 213.0 L 905.1 212.7 L 911.1 212.7 L 911.1 213.0 L 911.2 213.0 L 911.2 213.0 L 913.0 213.0 L 913.0 213.0 L 916.5 213.0 L 916.5 212.7 L 921.0 212.7 L 921.0 198.4 L 926.8 198.4 L 926.8 182.5 L 940.2 182.5 L 940.2 182.7 L 954.2 182.7 L 954.2 182.5 L 956.8 182.5 L 956.8 181.9 L 981.0 181.9 L 981.0 183.2 L 982.2 183.2 L 982.2 183.2 L 988.0 183.2 L 988.0 183.2 L 993.1 183.2 L 993.1 183.3 L 993.7 183.3 L 993.7 183.3 L 997.9 183.3 L 997.9 187.5 L 1002.7 187.5 L 1002.7 193.5 L 1004.3 193.5 L 1004.3 193.6 L 1006.4 193.6 L 1006.4 193.5 L 1007.9 193.5 L 1007.9 193.5 L 1008.2 193.5 L 1008.2 193.5 L 1009.6 193.5 L 1009.6 193.6 L 1009.9 193.6 L 1009.9 193.1 L 1019.0 193.1 L 1019.0 193.1 L 1033.8 193.1 L 1033.8 193.1 L 1035.4 193.1 L 1035.4 193.1 L 1042.7 193.1 L 1042.7 163.8 L 1043.3 163.8 L 1043.3 164.1 L 1046.9 164.1 L 1046.9 164.4 L 1048.6 164.4 L 1048.6 164.4 L 1052.6 164.4 L 1052.6 164.3 L 1054.6 164.3 L 1054.6 169.3 L 1055.7 169.3 L 1055.7 169.3 L 1055.8 169.3 L 1055.8 169.4 L 1057.6 169.4 L 1057.6 169.3 L 1059.3 169.3 L 1059.3 169.4 L 1066.4 169.4 L 1066.4 169.4 L 1070.0 169.4 L 1070.0 169.4 L 1070.0 355.8 L 1070.0 355.8 L 1066.4 355.8 L 1066.4 355.8 L 1059.3 355.8 L 1059.3 355.7 L 1057.6 355.7 L 1057.6 355.8 L 1055.8 355.8 L 1055.8 355.7 L 1055.7 355.7 L 1055.7 355.8 L 1054.6 355.8 L 1054.6 350.8 L 1052.6 350.8 L 1052.6 350.9 L 1048.6 350.9 L 1048.6 350.9 L 1046.9 350.9 L 1046.9 350.8 L 1043.3 350.8 L 1043.3 350.8 L 1042.7 350.8 L 1042.7 350.8 L 1035.4 350.8 L 1035.4 350.9 L 1033.8 350.9 L 1033.8 350.9 L 1019.0 350.9 L 1019.0 350.8 L 1009.9 350.8 L 1009.9 350.9 L 1009.6 350.9 L 1009.6 350.8 L 1008.2 350.8 L 1008.2 350.8 L 1007.9 350.8 L 1007.9 350.8 L 1006.4 350.8 L 1006.4 350.9 L 1004.3 350.9 L 1004.3 350.8 L 1002.7 350.8 L 1002.7 350.8 L 997.9 350.8 L 997.9 346.6 L 993.7 346.6 L 993.7 346.6 L 993.1 346.6 L 993.1 346.3 L 988.0 346.3 L 988.0 346.3 L 982.2 346.3 L 982.2 346.3 L 981.0 346.3 L 981.0 345.0 L 956.8 345.0 L 956.8 346.2 L 954.2 346.2 L 954.2 346.5 L 940.2 346.5 L 940.2 346.2 L 926.8 346.2 L 926.8 351.3 L 921.0 351.3 L 921.0 365.6 L 916.5 365.6 L 916.5 365.9 L 913.0 365.9 L 913.0 365.9 L 911.2 365.9 L 911.2 365.9 L 911.1 365.9 L 911.1 365.6 L 905.1 365.6 L 905.1 365.9 L 904.7 365.9 Z" fill="#d95926" fill-opacity="0.13" stroke="none"/>
<path d="M 904.7 213.0 L 905.1 213.0 L 905.1 212.7 L 911.1 212.7 L 911.1 213.0 L 911.2 213.0 L 911.2 213.0 L 913.0 213.0 L 913.0 213.0 L 916.5 213.0 L 916.5 212.7 L 921.0 212.7 L 921.0 198.4 L 926.8 198.4 L 926.8 182.5 L 940.2 182.5 L 940.2 182.7 L 954.2 182.7 L 954.2 182.5 L 956.8 182.5 L 956.8 181.9 L 981.0 181.9 L 981.0 183.2 L 982.2 183.2 L 982.2 183.2 L 988.0 183.2 L 988.0 183.2 L 993.1 183.2 L 993.1 183.3 L 993.7 183.3 L 993.7 183.3 L 997.9 183.3 L 997.9 187.5 L 1002.7 187.5 L 1002.7 193.5 L 1004.3 193.5 L 1004.3 193.6 L 1006.4 193.6 L 1006.4 193.5 L 1007.9 193.5 L 1007.9 193.5 L 1008.2 193.5 L 1008.2 193.5 L 1009.6 193.5 L 1009.6 193.6 L 1009.9 193.6 L 1009.9 193.1 L 1019.0 193.1 L 1019.0 193.1 L 1033.8 193.1 L 1033.8 193.1 L 1035.4 193.1 L 1035.4 193.1 L 1042.7 193.1 L 1042.7 163.8 L 1043.3 163.8 L 1043.3 164.1 L 1046.9 164.1 L 1046.9 164.4 L 1048.6 164.4 L 1048.6 164.4 L 1052.6 164.4 L 1052.6 164.3 L 1054.6 164.3 L 1054.6 169.3 L 1055.7 169.3 L 1055.7 169.3 L 1055.8 169.3 L 1055.8 169.4 L 1057.6 169.4 L 1057.6 169.3 L 1059.3 169.3 L 1059.3 169.4 L 1066.4 169.4 L 1066.4 169.4 L 1070.0 169.4 L 1070.0 169.4" fill="none" stroke="#d95926" stroke-width="2" stroke-linejoin="round"/>
</g>
</svg>
